<?xml version="1.0" encoding="UTF-8"?>
<svg id="Layer_2" xmlns="http://www.w3.org/2000/svg" viewBox="0 0 1891.6 855.02">
  <defs>
    <style>
      .cls-1 {
        fill: #fc7c54;
      }

      .cls-2 {
        fill: #fff;
      }

      .cls-3 {
        fill: #c72e30;
      }
    </style>
  </defs>
  <g id="Sushido_Title">
    <g>
      <path class="cls-3" d="M1256.2,225.71c-2.96,11.71-5.51,23.63-7.64,35.73-.77,4.37-4.55,7.57-8.99,7.57h-582.03c-4.44,0-8.23-3.19-8.99-7.57-2.13-12.1-4.68-24.02-7.64-35.73-1.46-5.77,2.9-11.37,8.85-11.37h597.59c5.95,0,10.31,5.6,8.85,11.37Z"/>
      <path class="cls-3" d="M948.62,69.63c188.21,0,356.85-26.84,470.61-69.21,4.81-1.79,8.74,4.08,5.28,7.87-28.43,31.05-53.92,79.81-75.81,111.3-1.7,2.45-4.5,3.9-7.48,3.9h-785.31c-2.98,0-5.78-1.45-7.48-3.9-21.91-31.53-47.45-80.31-75.92-111.4-3.47-3.79.47-9.67,5.28-7.87,113.76,42.42,282.5,69.3,470.85,69.3Z"/>
      <path class="cls-3" d="M1321.05,69.63v9.4c-18.98,28.23-35.07,59.26-47.73,92.46-1.35,3.54-4.74,5.87-8.53,5.87h-632.47c-3.78,0-7.17-2.32-8.52-5.85-11.81-30.99-26.62-60.08-43.97-86.78v-15.09h741.22Z"/>
      <path class="cls-3" d="M803.59,101.79l-39.47,719.09c-.27,4.92-4.06,8.92-8.96,9.44-55.62,5.84-107.76,14.13-155.2,24.47-7.25,1.58-13.65-4.95-11.91-12.16L766.6,101.79h36.98Z"/>
      <path class="cls-3" d="M1297.14,854.76c-47.43-10.34-99.58-18.62-155.19-24.46-4.9-.51-8.69-4.52-8.96-9.44l-39.47-719.08h36.98l178.54,740.81c1.74,7.21-4.66,13.74-11.91,12.16Z"/>
    </g>
    <g>
      <g>
        <path class="cls-1" d="M194.04,596.13c-72.16,5.09-132.13-20.24-190.27-54.17-3.3-1.93-4.66-6-3.17-9.52,11.75-27.63,23.39-55.01,35.51-82.33-74.61-106.86,30.88-225.49,148.77-211.31,89.3,4.72,177.8,45.41,257.87,86.86-22.78,37.11-45.56,74.62-67.38,112.44,24.97,99.59-90.48,156.7-181.33,158.03Z"/>
        <path class="cls-1" d="M508.87,567.9c-140.27,10.01-240.01-140.08-152.01-255.06,9.39-12.11,18.78-24.15,28.17-36.13,2.11-2.69,5.75-3.62,8.9-2.3,34.81,14.69,69.53,29,104.98,42.35,40.34-9.21,81.2-18.13,121.99-26.91,3.08-.66,6.25.65,7.95,3.3,27.33,42.57,56.74,73.32,58.23,135.62-.86,87.82-92.9,138.76-178.22,139.13ZM503.86,412.15c.34,1.47.91,2.87,1.65,4.12-.46-1.3-1.01-2.66-1.65-4.12Z"/>
        <path class="cls-1" d="M759.64,554.77c-71.12,2.3-130.85-21.98-194.27-45.17,12.79-17.94,25.58-35.77,38.38-53.5-34-71.46,26.65-134.33,151.38-134.83,76.89-.75,147.24,24.36,217.74,47.98-21.84,28.4-43.71,56.74-65.51,85.17,6.46,72.84-80.01,101.53-147.71,100.35Z"/>
        <path class="cls-1" d="M1074.02,559.36c-11.85-.92-24.24-1.84-36.62-2.72-.07.97.03,4.69.12,8.39.11,4.44-3.61,8.02-8.05,7.74-51.89-3.33-103.82-6.3-155.77-8.95-4.14-.21-7.33-3.7-7.18-7.85.46-12.3.66-29.18,1.28-38.83-10.73.06-21.46.12-32.2.19-.74-26.89-1.49-53.77-2.23-80.66-22.26-18.59-44.53-37.22-66.79-55.96,52.39-16.27,114.14-20.46,161.73-47.58,14.24-11.52,28.48-23.04,42.73-34.58,2.8-2.27,6.81-2.25,9.59.05,9.56,7.91,19.12,15.82,28.68,23.73,49.11,2.43,98.23,4.63,147.35,6.71-.88,17.43-1.76,34.85-2.64,52.27,7.18,0,14.36,0,21.54-.02,1.24,45.89,2.49,91.79,3.73,137.71-10.81-.17-21.62-.34-32.43-.5-.83,15.49-1.65,30.99-2.48,46.47-23.46-1.92-46.91-3.79-70.37-5.61Z"/>
        <path class="cls-1" d="M1197.45,579.76c-31.41-3.12-62.69-5.9-94.08-8.68-4.05-.36-7.09-3.84-6.9-7.9,1.06-22.11,4.22-87.67,4.73-96.46-34.32-29.39-69.29-58.7-103.82-87.84,47.45-15.38,122.83-24.58,160.67-51.07,14.4-12.64,28.81-25.33,43.21-38.1,2.81-2.49,7.04-2.55,9.91-.12,37.24,31.45,74.18,63.19,110.74,95.41-14.95,13.84-29.89,27.58-44.84,41.24-2.71,45.58-5.42,105.8-8.14,152.89-.25,4.31-4.05,7.53-8.34,7.08-21.05-2.2-42.09-4.34-63.14-6.44Z"/>
        <path class="cls-1" d="M1400.37,572.8c-16.68-.45-33.35-2.83-49.47-7.14-43.62-5.47-87.6-10.29-131.4-14.98,0,.02,6.53-81.47,7.55-94.19-25.45-34.8-51.54-69.36-77.49-103.73,504.62-218.37,502.61,223.45,250.8,220.03Z"/>
        <path class="cls-1" d="M1692.01,609.48c-20.6-1.34-41.2-3.13-61.79-4.63-3.63-.27-6.56-3.07-6.98-6.69-.87-7.61-1.74-15.22-2.61-22.82-78.26-2.99-155.74-66.2-155.02-145.66.32-107.74,128.58-182.09,231.42-185.76,252.27-17.39,268.18,384.73-5.03,365.56Z"/>
      </g>
      <g>
        <path class="cls-2" d="M130.84,371.6c-.01,54.96,180.78,28.41,180.79,98.89,0,35.38-30.46,69.14-98.11,71.38-45.1,1.42-92.08-11.19-129.27-33.72,6.39-14.19,12.78-28.3,19.16-42.34,29.68,17.9,75.53,33.35,117.25,32.5,26.69-.54,38.72-12.26,38.72-24.45-.01-23.73-179.65-16.01-179.64-93.54,0-45.04,42.83-90.9,126.64-87.57,49.99,1.79,102.62,17.41,144.35,40.06-6.27,13.07-12.53,26.2-18.8,39.39-33.46-17.47-84.96-34.92-132.32-36.11-43.97-1.13-68.77,18.09-68.77,35.49Z"/>
        <path class="cls-2" d="M518.57,499.63c39.3-.54,57.62-33.49,57.62-69.43,0-32.78-8.99-58.62-22.32-85.86,13.32-4.79,26.65-9.55,39.97-14.3,14.99,30.88,25.65,61.48,25.65,100.12,0,54.71-35.64,104.42-100.92,105.76-76.94,1.77-125.88-62.04-125.88-132.21,0-26.37,6.99-52.4,20.65-75.41,13.1,5.92,26.2,11.79,39.3,17.61-10.66,17.61-16.65,37.77-16.65,57.98,0,48.27,31.63,96.53,82.59,95.73Z"/>
        <path class="cls-2" d="M701.46,412.95c0,37.58,138.58,18.46,138.59,68.67,0,25.22-23.34,48.78-75.2,49.18-34.57.26-70.59-9.22-99.11-24.85,4.9-9.55,9.8-19.09,14.69-28.62,22.76,12.27,57.91,23.36,89.89,23.19,20.46-.11,29.68-8.24,29.68-16.83,0-16.73-137.72-12.15-137.72-64.34,0-30.35,32.84-62.34,97.09-61.94,38.32.2,78.66,10.14,110.64,25.82-4.8,9.45-9.6,18.91-14.41,28.37-25.64-12.24-65.12-23.83-101.42-23.94-33.71-.11-52.73,13.42-52.73,25.3Z"/>
        <path class="cls-2" d="M1109.43,476.9c-9.24-.03-18.49-.06-27.73-.09-.75,20.98-1.49,41.95-2.24,62.93-11.95-1.11-23.9-2.2-35.86-3.28.75-19.91,1.49-39.82,2.24-59.73-23.34-.05-46.69-.08-70.03-.1-.93,20.91-1.87,41.81-2.8,62.72-11.95-1.04-23.91-2.08-35.86-3.1.84-19.87,1.68-39.75,2.52-59.62-12.51,0-25.03,0-37.54.02-.19-10.22-.37-20.44-.56-30.65,13.07,0,26.15,0,39.22,0,.37-9.9.75-19.79,1.12-29.69-7.84,3.56-16.25,6.65-24.93,9.03-6.72-8.47-13.45-16.95-20.17-25.43,30.54-11.63,58.27-26.34,78.44-51.07,6.72,8.47,13.45,16.93,20.17,25.4-5.04,6.42-10.37,12.37-16.25,17.83-.75,17.98-1.49,35.96-2.24,53.93,23.34,0,46.69.02,70.03.04.93-28.56,1.87-57.13,2.8-85.7,11.95,1,23.9,2,35.86,2.99-.93,27.59-1.87,55.17-2.8,82.75,8.68.01,17.37.02,26.05.03.19,10.27.37,20.54.56,30.81Z"/>
        <path class="cls-2" d="M1167,537.56c1.63-41.51,3.27-83.04,4.9-124.59-8.07,3.71-16.71,6.92-25.64,9.38-6.91-8.78-13.83-17.55-20.74-26.31,31.4-12.11,59.93-27.51,80.67-53.44,6.91,8.77,13.83,17.56,20.74,26.37-5.19,6.73-10.66,12.96-16.71,18.68-2.11,51.21-4.23,102.38-6.34,153.52-12.29-1.22-24.59-2.42-36.88-3.61Z"/>
        <path class="cls-2" d="M1384.36,363.39c-41.96.46-87.6,14.22-117.24,28.72-5.66-11.03-11.33-22.04-16.99-33.02,36.98-18.68,83.61-30.94,127.9-31.68,61.95-1.13,118.56,24.24,118.56,97.29,0,74.58-50.61,118.48-103.24,117.22-18.65-.38-37.3-6.31-54.29-18.21,6.33-10.78,12.66-21.58,18.98-32.42,10.32,8.87,22.32,13.43,34.3,13.6,30.64.49,61.28-27.51,61.28-80.19,0-47.01-32.3-61.74-69.27-61.31ZM1291.43,529.11c2.78-49.23,5.55-98.51,8.33-147.85,14.21,1.17,28.42,2.34,42.63,3.52-2.78,49.65-5.55,99.23-8.33,148.75-14.21-1.49-28.42-2.97-42.63-4.42Z"/>
        <path class="cls-2" d="M1618.24,407.98c6.62-13.21,13.25-26.48,19.87-39.82,29.24,12.07,54.36,38.71,54.36,77.68,0,48.61-35.23,81.88-75.72,80.72-48.36-1.4-83.61-44.63-83.61-95.81,0-75.04,69-131.62,143.97-134.62,97.09-3.98,147.29,65.18,147.29,135.49,0,63.19-45.71,123.18-139.42,126.73-1.5-14.64-3-29.25-4.5-43.86,66.35-2.43,97.45-40.81,97.45-81.17,0-46.96-35.6-94.96-100.82-93.19-49.48,1.31-95.6,39.68-95.6,90.68,0,27.81,14.62,52.06,35.24,52.41,15,.24,27.37-15.28,27.37-37.65,0-18.52-12-31.77-25.87-37.59Z"/>
      </g>
    </g>
    <g>
      <path class="cls-3" d="M1217.82,169.59c-1.89,14.08-35.31,20.18-46.77,21.66-5.84-5.21-12.24-10.21-18.46-15.27l.71,8.75c-9.61.56-20.74,2.08-34.41.78-3.14-3.11-3.81-3.76-9.95-9.84-6.11,6.56-13.66,9.32-20.59,13.48-2.34-5.55-5.94-13.56-7.13-19.25-.67.61-1.9,1.36-2.66,1.89-8.92,2.97-21.76,8.88-25.92,8.28-10.33-2.3-21.45-11.83-26.65-22.18.41-3.26.6-6.29.37-9.86l-3.23,2.84c-.15,10.62-.46,21.9-.45,32.54-4.91-.37-12.56-.95-17.38-1.29-3.08-1.82-5.76-5.22-7.42-6.91,0,0-4.6-2.13-4.6-2.13-.02-.21-.58-5.64-.58-5.61-3.59,6.13-10.2,10.02-15.48,14.52l-12.56-.09c-.36-1.44-1.53-8.25-2.16-9.31-1.84-.31-6.37.27-9.1.51-1.51,2.43-4.57,7.27-6.26,9.96l-18.24-3.68.02-3.7c-4.62.08-9.29,2.98-13.49,6.6l-12.12.13c-.26-3.46-.81-10.12-1-13.5-15.36,12.2-23.16,15.3-42.89,21.56-9.05,2.5-14.05-5.59-14.17-14.66-3.97,3.78-9.22,6.68-13.61,9.93l-13.25.46c-.54-6.29-.8-10.92-3.01-18.01-2.95.11-6.42.24-9.41.41-.42.54-.83,1.05-1.25,1.58,1.14.68,5.97,6.3,7,7.32-7.58,10.31-14.24,10.43-25.32,14.9-11.63-1.75-25.09,1.51-36.68,3.12l1.13-4.6c-4.23-3.06-10.54-7.76-14.38-10.65-4.55,1.32-8,2.48-16.9,4.17-2.81.72-4.94-.02-12.15-2.51-8.91-2.74-19.16-8.1-28.37-8.07.99-16.72-1.65-31.66,1.79-48.89,10.66-9.78,20.29-21.89,32.73-29.69,10.41-1.35,21.66-5,32.16-3.65,6.46,5.61,13.9,10.41,18.63,18.49.43-2.01,1.06-4.62,1.54-6.65l6.22-4.93c-.42-13.76-2.96-26.03-.75-40.47,9.87-9.01,18.43-20.35,30.11-27.46,9.81-.83,20.3-3.91,30.39-2.29,8.75,7.65,21.45,15.71,21.73,29.44l1.51-.51-1.44,1.63.24,3.92,1.04.24c.94-2.11,2.27-5.1,3.33-7.51,0,0,5.2-3.86,5.2-3.86,12.63-.72,24.78.11,29.02,3.32,2.05-11.44,15.66-8.94,49.49-9.85,2.57,2.18,4.98,4.12,7.68,6.6l-.06-.71,7.15-5.79c14.74.04,25.48,0,40.26-.1,1.82,3.52,3.24,6.66,6.93,9.36-.06-1.62.7-8.15.84-9.87,14.94-1.76,31.46.48,46.17-.18l-.1-1.8,6.32-6.04c9.28-.87,17.84-2.3,27.49-2.27,1.22,1.62,3.52,4.44,4.55,6.13.88-5.36-1.08-13.36-1.78-18.36,10.92.79,24.2,2.07,31.02,11.66,11.15,13.66,6.82,60.1,1.4,77.42h.24c4.28,3.17,8.81,6.61,12.52,10.09l-.13-.61c4.45-6.28,14.68-19.17,16.25-21.1,1.85-1.24,3.95-2.86,5.83-4.06,11.54.01,19.05.05,30.04.08,1.57-.64,4.02-1.53,5.33-2.22,0,0,14.52-14.22,14.52-14.22l.32,20.8c-.5,12.8-4.53,25.77-6.99,33.49,13.53,7.21,21.75,20.61,20.07,36.15Z"/>
      <g>
        <g>
          <path class="cls-1" d="M799.62,177.53c-.35.38-.7.65-1.07.77-5.3,1.97-7.96,2.96-13.3,4.98-7.79-.87-15.58.09-23.7,1.36,6.1-25.03,6.31-51.05,12.32-76.08.42-.33.63-.5,1.05-.83,7,2.27,10.51,3.4,17.59,5.62-.04,0-.06,0-.09,0,1.36.57.69,1.56.63,2.67-4.68,17.48-9.43,34.97-13.3,52.65-1.39,1.27,19.36,8.32,19.88,8.88Z"/>
          <path class="cls-1" d="M900.2,138.97c-.05-1.4-.39-2.8-.48-4.19-5.29-4.88-13.67-9.24-17.13-15.58-13.26,1.41-19.91,2.12-33.25,3.6-.39.42-.58.63-.97,1.05,1.28,10.62,1.58,30.68,4.96,37.24,1.13,2.19-.44,22.09,3.39,20.87,19.22-6.09,25.8-8.66,40.47-20.38,3.86-3.09,2.7-17.6,3.02-22.6ZM871.54,164.51c-1.07.13-1.6.2-2.67.33-.65-9.58-.86-21.73-.49-31.33,3.8-.44,5.69-.66,9.48-1.09,2.49,7.34,7.83,18.72,6.72,22.29-.88,2.81-7.92,5.83-13.05,9.8Z"/>
          <path class="cls-1" d="M928.14,132.35c-.27,12-.47,22.84-2.75,34.79-5.03.69-9.44,3.36-13.1,6.23-.29,0-.44,0-.74,0-1.36-17.62-1.35-36.39.96-53.94,4.74-.79,9.04-1.11,13.85-.91,3.62,2.28,1.24,10.52,1.77,13.81Z"/>
          <path class="cls-1" d="M1021.52,140.37c-.73.65-1.1.97-1.84,1.61-.5-4.36-.06-10.43-2.58-14.38-1.45.6-2.18.91-3.64,1.51,1.38,14.79.43,29.93.34,44.67-2.11-.16-3.17-.24-5.28-.39-3.31-2.46-2.69-4.34-6.89-6.29,0,0-2.78-27.33-3.53-39.81-1.27.14-1.91.2-3.19.34-2.2,3.11-1.7,8.68-4.79,10.92-1.25-3.52-5.55-8.63-6.78-11.64-.48-3.77-2.22-8.94-.42-12.38,6.56.78,15.13-.08,21.74-.14,6.63-.06,13.61.84,20-.82,2.08,2.82,2.76,5.19,2.96,8.46.75,6.15-4.76,12.58-6.1,18.34Z"/>
          <path class="cls-1" d="M1077.32,143.14c-3.58-6.29-7.79-14.61-11.93-20.56-.65-.09-18.82-1.97-18.83-1.91-6.57,2.96-9.69,11.86-11.92,17.7.31,5.6,1.12,12.12.51,17.73,3.36,6.33,10.18,10.63,17.04,14.82,1.52,1.43,21.17-7.11,22.75-7.48,3.97-2.66,2.85-9.75,3.02-14.08-.11-2.98-.32-3.91-.64-6.22ZM1060.31,150.96c-1.29,1.21-3.37,1.85-5.98,1.79-.29,0-.59-.03-.88-.05-.29-.02-.59-.04-.9-.09-.88-.12-1.86-.32-2.9-.56-.31-.24-.49-.42-.5-.52-.47-4.89-.7-7.33-1.17-12.22.72-4.9,6.64-2.81,10.65-1.55.1.22.2.44.3.65.7,1.54,1.34,3.21,1.8,4.45.15.32.28.65.39.95,0,.05.03.08.03.12.75,2.87.62,5.36-.79,6.96-.02.03-.03.05-.05.07Z"/>
          <path class="cls-1" d="M1208.93,168.77c-2.45,5.45-27.26,12.27-34.99,13.15-11.05-9.61-24.29-18.59-32.85-29.23,1.82.27,2.74.41,4.56.68-.05,0-.08,0-.14,0,8.21,4.06,12.35,6.13,20.68,10.34,33.99,2.94-.31-20.14-17.22-19.88-4.23-6.35-5.54-14.34-6.97-21.12,3.98-5.45,12.81-16.51,12.81-16.51.84-.57,1.64-1.24,2.44-1.77,11.65.03,17.48.05,29.13.08,2.73-1.25,7.74-2.79,9.43-4.44.12,7.81-4.99,25.81-4.99,25.81-.14.16-.3.61-.53,1.41-.42,1.85-1.26,4.04-1.86,5.73-9.45-23.95-32.26-15.84-15.11,1.36,18.06,3.51,37.61,12.51,35.61,34.4Z"/>
          <path class="cls-1" d="M758.4,136.15c-2.39,1.69-3.6,2.54-6.01,4.25.46,9.86.71,14.77,1.26,24.55-1.75,5.48-2.63,8.23-4.4,13.73-15.95-11.67-6.27-7.65-31.72-2.95-.88.28-28.61-9.97-29.35-10.04.33-12.99-1.29-23.47.94-36.26,8.72-8.2,17.62-18.91,27.69-25.59,7.86-1.09,17.8-4.04,25.41-3.51,6.31,5.29,16.15,12.14,16.11,20.26-8.84.32-15.67-7-25-3.68-12.8,5.28-15.88,19.29-19.24,28.45-1.11,5.81.67,15.58,7.19,17.97,9.81-5.45,9.88-14.98,16.09-21.66-.8.29-11.56-.93-12.59-1,7.06-4.08,10.57-6.08,17.52-10.05,5.75,1.36,11.98,2.78,17.95,3.89-.43.53-1.08,1.07-1.86,1.64Z"/>
          <path class="cls-1" d="M833.24,138.38c-3.33-21.47,9.3-19.67-24.4-17.74-.44.28-.67.42-1.11.7-3.77,7.44-5.69,11.17-9.56,18.67.11,9.14-6.69,18.05-7.96,27.21,1.94.3,2.91.44,4.85.74,2.56-3.23,3.83-4.84,6.35-8.04,6.73-.51,20.54-.9,20.54-.9,0,0,4.05,12.72,4.53,17.95.86-.03,1.29-.04,2.15-.07,3.31-2.35,8.8-5.58,11.25-8.4.31-6.73-6.52-23.41-6.65-30.12ZM811.13,147.8c.36-6.3,5.01-14.33,7.88-3.57,1.58,3.62-4.79,3.46-7.88,3.57Z"/>
          <path class="cls-1" d="M977.35,141.68c-6.37-24.01,7.29-20.35-26.33-18.66-.41.34-.61.51-1.02.84-3.04,7.5-4.59,11.25-7.74,18.75,1.31,10.01-4.36,19.53-4.41,29.46,2,.4,3.01.61,5.01,1.01,2.16-3.42,3.23-5.14,5.35-8.56,12.44-.61,21.05-4.29,23.71,8.48.85,0,1.28,0,2.13.02,3.02-2.47,8.06-5.84,10.12-8.9-.62-7.54-5.73-14.95-6.83-22.44ZM956.38,151.49c-.51-6.9,3.08-15.69,7.44-3.69,2.11,4.04-4.33,3.68-7.44,3.69Z"/>
          <path class="cls-1" d="M1131.22,157.48c-.43-.39-.64-.58-1.07-.97-4.11-1.04-9.38-1.34-13.17-3.33,2.38-4.19,8.03-4.53,12.2-6.59,13.54-6.69-3.2-19.85-12.1-26.48-11.14-.03-35.36,2.12-35.36,2.12-.14.62,3.38,23.86,4.65,28.99,2.03,8.18,2.75,16.75,6.34,25.29,5.89-3.26,11.34-6.56,12.82-13.03,1.46-.05,2.2-.08,3.66-.13,4.07,4.04,13.67,13.54,13.67,13.54,7.02.61,20.8-.41,20.8-.41-.07-.84-12.33-11.26-12.46-19ZM1114.53,142.6c-5.26.9-12.02,1.58-17.65,1.55-.46-4.14-1.21-9.78,1.35-13.13,9.84-.63,16.46,1.46,16.3,11.57Z"/>
        </g>
        <g>
          <path class="cls-1" d="M1115.39,52.05c1.03,17.63,1.37,37.72-3.48,54.88.38,1.82-13.63.61-14.63.9-3.13-9.85-9.13-17.93-15.96-26.22-5.71-.25.57,20.22,1.25,24.04-.52.42-.78.64-1.3,1.06-9.66-4.38-14.7-3.02-15.65-12.74-4.76-15.82-4.79-31.86-5.66-47.7.45-.43.68-.65,1.13-1.08,7.29-.7,12.29-1.64,19.25-1.82,4.96,6.44,7.05,16.75,16.14,21.64.48-.47.73-.71,1.21-1.18-2.65-8.17,1.73-23.29.38-31.61,11.29,1.2,18.29,10.78,17.31,19.83Z"/>
          <g>
            <path class="cls-1" d="M1050.24,53.42c-2.56,9.52-5.82,10.53-15.86,12.81-3.41.02-14.81.15-19.92.21-.25-4.31-2-8.86-1.56-13.42,11.83-.81,25.54,1.03,37.33.41Z"/>
            <path class="cls-1" d="M1057.71,95c-.34.73-.87,1.5-1.6,2.3-1.74,2.05-4.41,4.23-6.42,5.89-2.08-.13-18.58-.17-20.59-.02-3.47.26-9.46.52-12.94.88-.67-8.98,1.15-17.14.09-26.14-.45-.67-.82-1.65-1.06-2.65,4.24-.28,14.87-.88,22.35-.39.04.02.06.02.07.02.55.04,1.08.09,1.59.13.13.02.26.03.37.05.37.03.7.06.99.07.69.04,1.42.08,2.15.14.04.02.07.02.11.02,2.3.19,4.75.52,6.9,1.46-2.22,5.2-6.55,7.55-12.75,8.57-1.35.41-1.15,3.14-.95,4.6-.01,7.71,15.52,4.47,21.7,5.07Z"/>
          </g>
          <path class="cls-1" d="M1007.4,68.92c-4.81-4.67-12.69-9.11-15.74-14.82-12.71.08-19.06.09-31.77.07-.39.31-.58.47-.96.78.72,7.44.55,27.37,3.23,31.94.98,1.67-1.48,18.66,2.24,18.03,18.51-3.13,24.85-2.72,39.36-13.21,4.88-3.53,3.68-17.1,3.64-22.78ZM979.25,91.67c-1.01,0-1.51,0-2.52,0-.17-8.18.13-18.54.86-26.64,3.63-.02,5.44-.03,9.07-.06,2.1,6.36,6.54,16.91,5.44,19.63-.9,2.21-7.78,4.21-12.84,7.06Z"/>
          <path class="cls-1" d="M946.44,89.64c-.36-.36-.54-.53-.9-.89-3.8-.84-8.85-.94-12.19-2.76,2.97-4.13,8.48-4.62,12.84-6.73,14.24-6.89.05-18.88-7.43-25.17-11.52.1-36.16.29-37.27,2.1-2.46,4.01,3.15,52.9,4.52,53.55,1.2.57,12.1-6.95,14.58-13.32,1.43-.1,2.15-.15,3.58-.26,3.28,3.8,7.13,9.1,11.05,12.48,0,.03,0,.05,0,.08,6.72.27,20.27-1.43,20.27-1.43-.07-.69-10.17-10.22-9.05-17.65ZM932.29,76.18c-5.23,1-11.87,1.82-17.3,1.92.24-4.04.45-9.55,3.46-12.85,9.36-.86,15.76,1.4,13.83,10.93Z"/>
          <path class="cls-1" d="M891.54,79.93c-2.66-14.14,6.37-20.49-24.99-19.44-.43.32-.65.48-1.09.81-3.43,7.72-5.17,11.59-8.7,19.35.47,9.67-5.93,18.85-6.81,28.48,1.95.39,2.92.59,4.87.97,2.41-3.32,3.61-4.97,5.99-8.27,12.34-.6,21.2-4.17,22.75,8.02.85,0,1.27,0,2.12,0,3.18-2.39,8.46-5.64,10.76-8.59-.01-7.15-4.44-14.19-4.9-21.33ZM869.98,89.3c.07-6.65,4.35-15.05,7.67-3.54,1.74,3.89-4.6,3.52-7.67,3.54Z"/>
          <path class="cls-1" d="M845.64,71.97c-2.15,1.54-3.23,2.31-5.4,3.86,1.05,9.52,1.59,14.27,2.74,23.75-1.31,5.22-1.97,7.83-3.3,13.06-15.88-12.06-6.41-7.61-30.27-4.49-.81.22-27.71-11.21-28.41-11.32-.42-12.37-2.54-22.44-1.14-34.5,7.77-7.33,15.56-17.09,24.66-23.04,7.31-.7,16.49-3.12,23.68-2.37,6.25,5.3,15.94,12.22,16.41,20.05-8.3,0-15.2-7.29-23.76-4.49-11.77,4.54-13.87,17.78-16.49,26.37-.73,5.5,1.55,14.97,7.87,17.61,8.96-4.73,8.45-13.9,13.91-20.03-.72.24-10.97-1.43-11.95-1.54,6.43-3.57,9.61-5.34,15.93-8.86,5.52,1.55,11.49,3.15,17.19,4.45-.38.51-.95,1-1.65,1.52Z"/>
        </g>
      </g>
    </g>
  </g>
</svg>