<?xml version="1.0" encoding="UTF-8"?>
<svg id="Layer_2" data-name="Layer 2" xmlns="http://www.w3.org/2000/svg" width="469.98" height="313.6" xmlns:xlink="http://www.w3.org/1999/xlink" viewBox="0 0 469.98 313.6">
  <defs>
    <style>
      .cls-1 {
        fill: #fff;
      }

      .cls-2 {
        fill: url(#radial-gradient-5);
      }

      .cls-3 {
        fill: url(#radial-gradient);
      }

      .cls-4 {
        fill: url(#radial-gradient-3);
      }

      .cls-5 {
        fill: url(#radial-gradient-2);
      }

      .cls-6 {
        fill: url(#radial-gradient-4);
      }

      .cls-7 {
        fill: url(#radial-gradient-6);
      }
    </style>
    <radialGradient id="radial-gradient" cx="240.51" cy="46.38" fx="240.51" fy="46.38" r="286.28" gradientUnits="userSpaceOnUse">
      <stop offset="0" stop-color="#710d29"/>
      <stop offset="1" stop-color="#35111a"/>
    </radialGradient>
    <radialGradient id="radial-gradient-2" cx="235.2" cy="272.54" fx="235.2" fy="272.54" r="200.54" gradientUnits="userSpaceOnUse">
      <stop offset="0" stop-color="#fff"/>
      <stop offset="1" stop-color="#ee488f"/>
    </radialGradient>
    <radialGradient id="radial-gradient-3" cx="235.2" cy="272.54" fx="235.2" fy="272.54" r="200.54" xlink:href="#radial-gradient-2"/>
    <radialGradient id="radial-gradient-4" cx="235.2" cy="272.54" fx="235.2" fy="272.54" r="200.54" xlink:href="#radial-gradient-2"/>
    <radialGradient id="radial-gradient-5" cx="235.2" cy="272.54" fx="235.2" fy="272.54" r="200.54" xlink:href="#radial-gradient-2"/>
    <radialGradient id="radial-gradient-6" r="200.54" xlink:href="#radial-gradient-2"/>
  </defs>
  <g id="Layer_2-2" data-name="Layer 2">
    <g>
      <path class="cls-3" d="M469.97,220.63c0,.46-.01.69-.01,1.15-.18.39-.27.58-.44.98-3.79,8.53-32.14,13.92-35.09,14.22-1.66.19-2.5.28-4.16.46-1.41-1.23-2.12-1.84-3.53-3.06-2.71-2.36-5.6-4.69-8.64-7.13h-.01c-3.11,1.65-4.68,2.47-7.82,4.1-6.02,3.12-13.2,2.14-18.92,1.4-1.22-.16-2.42-.31-3.58-.42-1.46-.13-2.19-.2-3.66-.33-1.04-1.03-1.56-1.54-2.6-2.57,0,0-2.74-2.7-5.73-5.66-2.91,3.35-6.8,5.5-9.98,7.25-3.43,1.87-5.15,2.81-8.62,4.68-1.53-3.66-2.29-5.48-3.8-9.12-1.06-2.57-1.85-5.08-2.48-7.53-.11.07-.18.15-.3.22-.41.28-.62.41-1.03.69-.4.09-.6.14-1.01.23-.56.2-1.92.74-3.04,1.18-2.14.84-4.09,1.61-5.89,2.29-4.27,5.97-8.9,11.48-13.76,16.53,2.48,1.21,5.61,2.33,8.83,2.46,7.22.3,12.78-2.79,12.78-2.79,0,0,1.89,8.54,5.16,11.63,3.27,3.09,10.79,6.18,11.96,10.6,2.35,20.17-2.22,42.7-26.36,49.47-24.15,6.78-50.47-4.34-61.35-18.55l8.93-5.01c4.42,0,21.5,3.24,28.86-19.43,1.4-4.3,2.07-12.99,2.14-19.71-27.81,24.54-60.79,35.9-81.93,35.9s-54.13-11.36-81.93-35.91c.08,6.72.75,15.41,2.15,19.72,7.36,22.67,24.44,19.43,28.86,19.43l8.92,5.01c-10.87,14.21-37.19,25.33-61.34,18.55-24.15-6.77-28.71-29.3-26.36-49.47,1.17-4.42,8.69-7.51,11.96-10.6,3.26-3.09,5.15-11.63,5.15-11.63,0,0,5.57,3.09,12.78,2.79,3.22-.13,6.36-1.26,8.84-2.46-3.01-3.12-5.92-6.41-8.71-9.88-.02.02-.03.03-.05.04-.96.68-1.44,1.02-2.4,1.7-4.61.16-6.92.25-11.54.44-.19-2.18-.28-3.26-.46-5.44-.16-2.06-1.29-6.42-2.36-10.26-2.44.1-5.36.23-7.95.36-.79,1-1.19,1.5-1.99,2.51,1.91.77,2.47,1.15,3.21,1.97,1.36,1.48,2.04,2.21,3.41,3.69-1.56,1.71-2.33,2.57-3.9,4.3-1.65,1.83-3.51,2.78-4.88,3.27-5.5,2.04-8.26,3.07-13.8,5.17-.89-.1-1.34-.14-2.23-.24-5.91-.62-12.09.21-18.45,1.23-4.02.64-6.03.96-10.06,1.62.33-1.09.49-1.64.81-2.74-2.86-2.03-4.29-3.05-7.11-5.11-1.61-1.15-2.93-2.15-4.02-2.98-1.06-.8-2.13-1.63-2.86-2.13-.29.09-.62.19-.91.28-2.54.78-6.83,2.05-13.71,3.37-2.81.86-4.26.47-22.47-5.91-2.72-.95-5.75-2.03-6.98-2.45-1.8-.15-2.7-.22-4.51-.36.06-2.02.09-3.03.16-5.05.12-3.85.03-7.53-.04-11.08-.14-6.76-.23-13.8,1.2-21.74.21-1.16.31-1.73.52-2.88.95-.9,1.42-1.34,2.37-2.23,2.2-2.07,4.48-4.41,6.86-6.85,5.52-5.64,11.68-11.95,18.59-16.51.7-.47,1.06-.71,1.76-1.18.79-.11,1.18-.16,1.97-.26,2-.26,4.29-.71,6.7-1.18,5.36-1.04,11.44-2.18,16.86-1.77.84.06,1.26.09,2.1.15.6.51.9.76,1.49,1.27.52.43,1.08.89,1.64,1.36,4.22,3.55,9.84,7.97,12.67,13.53.23-.96.45-1.92.68-2.8.27-.99.41-1.49.68-2.48,2.18-1.75,3.27-2.62,5.44-4.35-.02-.65-.03-.97-.05-1.62-.09-3.66-.38-7.17-.65-10.56-.5-6.43-.98-13.13-.06-20.6.08-.63.13-1.08.19-1.56l1.08-2.04c2.33-2.08,4.7-4.56,7.23-7.18,2.72-2.84,5.63-5.86,8.75-8.7-1.37-41.85,7.05-60.99,7.05-60.99,0,0,4.27,26.21,7.36,35.93C118.59,52.86,153.99,6.48,169.35,0c-4.08,16.49-13.21,62.14-10.27,83.05,0,0,18.37-36.37,42.9-47.41-.92,6.01-.61,12.01-.31,15.33,11.98-6.19,25.55-10.82,39.43-10.92,66.25-.44,69.6,43,69.6,43,2.95-20.91-6.18-66.56-10.26-83.05,15.35,6.48,50.75,52.86,56.79,81.28,3.09-9.72,7.37-35.93,7.37-35.93,0,0,6.79,15.43,7.18,48.86,3.94,1.46,7.46,3.91,10.23,7.18,3.79,4.49,5.84,10.19,5.62,15.7v2.19c1.01,15.28,1.23,32.71-2.84,47.63-.18.89-.57,1.7-1.14,2.42h.1c.97.72,1.46,1.09,2.43,1.81,3.02,2.25,6.95,5.21,10.45,8.67-.33-1.58-.49-2.37-.81-3.94.58-.79.87-1.18,1.45-1.97,3.55-4.84,11.09-14.26,11.4-14.66.22-.27.33-.41.54-.68.29-.2.43-.3.72-.49.29-.19.57-.41.84-.61.43-.33.86-.65,1.29-.95.62-.42.93-.63,1.56-1.06,10.26-.04,15.39-.06,25.65-.11.27-.16,2.45-.19,2.83-.26,7.5-1.32,15.77-4.88,15.77-4.88.1,3.97.15,5.94.23,9.89.18,7.55-3.93,22.68-4.42,24.36-.13.43-.19.65-.31,1.08-.06.07-.09.1-.15.17-.27,1.11-.62,2.23-.97,3.27,10.12,5.39,17.99,14.47,17.72,31.66Z"/>
      <g>
        <path class="cls-5" d="M240.6,92.44c-.72.46-1.52.77-2.35.97.38.3.69.68.81,1.3.18,1.06.14,2.12.18,3.19.07,1.46.09,2.97.55,4.37.01.04.03.08.04.11.03.06.05.11.08.17.01.02.02.04.03.06.11.22.28.48.32.73.36.79.75,1.66,1.12,2.37.05.09.1.18.16.28l.08.14c.04.07.07.15.09.21-.02.03-.05.06-.09.07h-.02s-.04.02-.04.02l-.09.03-.17.05c-.48.15-.96.31-1.44.49.2.2.43.46.67.85.35.56.72,1.48.62,2.24v.06s-.04-.05-.04-.05c-.18-.26-.33-.55-.47-.82-.1-.2-.21-.41-.32-.61-.31-.52-.72-.99-1.2-1.36-.04.02-.08.04-.11.05-.16.09-.33.17-.48.26,0,1.71-.2,3.03-.62,4.03-.03.07-.07.14-.14.16-.01,0-.02,0-.03,0-.03,0-.06-.01-.08-.03-.07-.06-.09-.2-.08-.29.02-.22.06-.44.09-.66.04-.28.08-.57.1-.86.04-.44.02-.89-.05-1.34-.02-.1-.08-.27-.14-.44-.33.2-.64.41-.96.61l-.17.11-.08-.18c-.07-.16-.13-.31-.2-.48-1.57.12-1.46-3.03-1.45-4.02.02-1.14.07-2.28.09-3.41-.11-.01-.22-.03-.33-.04-.24-.04-.48-.01-.73.03l-.1.03v-.1c-.11-1.78-.24-3.56-.29-5.33,0-.99-.08-1.98-.09-2.97v-.31c-.15.13-.25.33-.31.51-.12.34-.16.72-.11,1.08v.11s-.07-.07-.07-.07c-.14-.11-.25.08-.32.19-.22.44-.32.94-.43,1.42-.1.49-.18.99-.25,1.48-.01.07-.04.3-.05.37v.07s-.01.03-.02.04h0s-.02.03-.02.04c-.01,0-.03-.01-.03-.02h0s-.01-.04-.01-.05v-.05s-.04-.1-.04-.1c-.3-1.54-.42-3.48.43-4.87.31-.48.76-.91,1.33-1.06.02-.01.03-.02.05-.03.07-.02.12,0,.17.03.14.03.28.07.42.11.3.1.62.21.94.33-.01-.04-.02-.08-.02-.12-.02-.02-.03-.03-.04-.05-.06-.07-.12-.14-.14-.21-.02-.08,0-.15.04-.2-.08-.11-.15-.23-.22-.34-.22-.36-.44-.7-.57-1.11-.05-.12-.06-.26-.04-.39-.42.31-.85.62-1.29.9-.05.04-.12.07-.19.08-.1.02-.18-.01-.25-.03-.23-.08-.35-.05-.48.16-.1.16-.15.47-.17.6.01.27,0,.53-.02.8-.03.52-.09,1.04-.15,1.57-.06.51-.16,1.02-.18,1.54-.04.62-.08,1.24-.1,1.85,0,.04,0,.09-.01.14-.05.21-.27.3-.45.35h-.02s-.03,0-.04,0h-.03s-.03-.01-.03-.01l-.07-.02c-.28-.08-.57-.16-.85-.24-.36-.11-.73-.22-1.08-.35v-.15c.02-.2,0-.41-.01-.61-.05-.64-.12-1.28-.2-1.92-.03-.32-.08-.71-.14-1.11h0s-.01-.05-.01-.07v-.05c-.04-.21-.06-.41-.08-.62,0-.05-.01-.1-.01-.15-.03-.21-.05-.4-.06-.57-.09-1.38-.14-2.81-.21-4.21-.49.23-.84,1.21-.89,1.69-.02.13-.01.25.02.38h-.04c-.66.16-1.11,2.48-1.18,3.11,0,0-.04,0-.04,0-.05-.6-.06-1.21-.02-1.81.09-1.35.41-2.76,1.3-3.83.25-.29.56-.56.93-.68.09-.07.18-.11.3-.1.01,0,.02,0,.03,0h.01c.1.05.17.13.25.2,1.21,1.06,2.38,2.17,3.56,3.27.44-.24,1-.58,1.44-.8l.04-.03.04-.02c.38-.26.72-.57,1.04-.91v-.03c.29-.07.59-.09.88-.06.02-.02.02-.04.03-.07.02-.07.02-.42.01-.81-.08.07-.15.13-.23.2-.03.03-.14.12-.18.15-.03.02-.07.06-.11.07-.14-.05-.28-.11-.41-.17-.2-.1-.4-.21-.59-.33-.21-.12-.41-.26-.61-.41-.08.13-.11.28-.11.42s.01.3,0,.44c-.29-.42-.36-.76-.28-1.18-.34-.3-.67-.64-.94-1.01,0,.1,0,.23,0,.3.01.24.04.49.07.74l-.15-.1c-.05-.08-.11-.14-.16-.22-.08-.13-.12-.27-.18-.41-.01.93.3,1.92.66,2.75.14.31.32.65.47.96l-.28-.18c-1.67-1.05-2.32-3.48-2.57-5.33-.05-.5-.1-1.01-.05-1.52.05-.31.18-.59.32-.86.1-.18.21-.35.3-.53.1-.19.17-.41.07-.62.6.11,1.19.31,1.7.64.28-.18.6-.3.94-.37.02,0,.04-.01.06-.02.05-.62.18-1.25.5-1.79l.09-.15.1-.14c.07-.08.2-.23.27-.31-.08.42-.16.86-.19,1.28-.03.33-.04.67-.03,1,.79-.05,1.59.06,2.35.25.08.02.15.04.23.07-.18-.44-.18-.95.1-1.35.6-.83,1.86-.75,2.64-.24.82.5,1.34,1.63.79,2.5-.4.61-1.21.7-1.86.51.15.44.16.93.14,1.46l-.02.26c-.08.2-.18.38-.29.55-.34.52-.76.98-1.2,1.41-.07.07-.14.14-.2.21.01.29-.06.59-.24.88l-.07.12c-.03-.22,0-.46-.05-.67-.03.03-.05.05-.08.08-.28.45-.22,1.24-.18,1.41.02.1.04.18.08.24.27.07.52.17.76.27.12.05.24.12.35.18v.05s0,.02,0,.02c.05.22.11.45.17.68.18.07.35.13.37.17h0v.02s.02.06.02.09c.79-1.72,2.08-3.21,3.59-4.37.15-.11.3-.23.45-.34l.04-.03h.01s.01-.01.01-.01c.06-.05.15-.04.21,0,.16.12.24.33.33.49.07.14.12.28.17.42.08.21.15.43.22.64.2.65.25,1.35.19,2.03-.17,1.75-.98,3.53-2.47,4.53Z"/>
        <path class="cls-4" d="M241.2,101.27c.19-.11.39-.26.52-.43.29-.4.48.15.61-.27.13-.42-.18-1.01.52-1.26.71-.26-.37.47.26.55.63.08.37-.5.46-.57.09-.07.52.03.39.46-.13.43.07.16.13.54.06.38-.5.35-.67,1.01-.17.66-1.06.7-.41,1.77h.01c.32-.22.02-.3.42-.66.29-.26.45-.28.51-.27.02,0,.04-.01.03-.03-.01-.14-.01-.61.41-1.09.02-.02.06,0,.05.03-.12.78-.11.74-.08.87.03.13.33.43.42.47.08.04.41-.06.49-.06,0,0,.02,0,.02-.01.02-.03.07-.08.11-.09.05-.02.11.15.06.19-.04.04.16.01.24-.04.01,0,.02-.03.01-.04-.03-.06-.11-.24.1-.26.25-.03.11.32.07.34-.04.02.39-.02.33-.5-.05-.48-.13-.45.06-.62.19-.18.28-.15.38-.11.1.04.23.17.09.25-.15.08-.31.15-.31.23,0,.07.2.4.47.38.11,0,.27.04.4.11-.07.57-.12,1.09-.15,1.4,0,.01,0,.03,0,.04,0,.01,0,.02,0,.03,0,.02,0,.03,0,.05,0,0,0,.01,0,.02,0,.02,0,.03,0,.05,0,0,0,0,0,.01,0,.02,0,.03,0,.04,0,0,0,0,0,0,0,.01,0,.02,0,.03,0,.03-.01.06-.01.08,0,0,0,.02,0,.02,0,0,0,.02,0,.03,0,0,0,.02,0,.03,0,.01,0,.03,0,.05,0,0,0,.01,0,.02,0,.02,0,.05-.01.07,0,0,0,.01,0,.02,0,.02,0,.05-.01.07,0,0,0,0,0,.01,0,.03,0,.06-.01.09,0,0,0,.01,0,.02,0,.03,0,.06,0,.09,0,0,0,.01,0,.02,0,.03,0,.07,0,.11,0,0,0,.01,0,.02,0,.03,0,.06,0,.09,0,.01,0,.02,0,.04,0,.04,0,.07,0,.11,0,.02,0,.03,0,.05,0,.02,0,.05,0,.07,0,.02,0,.05,0,.07,0,.01,0,.02,0,.03,0,.03,0,.05,0,.08-.03,1.81.08,3.34.52,4.66.23.69.56,1.31,1,1.89,0,.01.02.01.03.01.01,0,.02,0,.03-.02,0,0,0,0,0,0,.06-.3.06-.74.04-1.26-.09-1.73-.56-4.33-.89-5.39,0,0,0,0,0,0-.01-.04-.02-.08-.03-.12,0-.01,0-.02,0-.04,0-.03-.02-.06-.02-.09,0-.01,0-.02,0-.04,0-.03-.01-.06-.02-.09,0-.01,0-.02,0-.03,0-.03-.01-.07-.02-.1,0,0,0,0,0-.01-.01-.07-.02-.14-.03-.21,0,0,0-.01,0-.02,0-.03,0-.05,0-.08,0,0,0-.01,0-.02,0-.03,0-.05,0-.07,0,0,0,0,0,0,0,0,0,0,0,0,0,0,.01-.02.02-.03,0,0,0,0,0,0,0,0,0-.02,0-.03,0,0,0,0,0,0,.01-.1.22-.79.51-1.53.07-.02.15-.06.22-.1.39-.23.41-.23.49-.18.08.05.27-.28.35-.31.07-.03.02.27.02.32,0,.04.1.12.26.09.16-.03.32.31.48.38.09.04.32.07.58.05-.03.22-.07.41-.11.53-.02.06-.04.11-.06.14,0,0,0,0,0,0,0,0,0,0,0,0,0,0,0,0,0,0,0,0,0,.01,0,.02,0,0,0,0,0,.01,0,0,0,.02,0,.02,0,0,0,0,0,0,0,0,0,.02,0,.02,0,0,0,0,0,0,0,0,0,0,0,0,0,0,0,0,0,0,0,0,0,.01,0,.02,0,0,0,.01,0,.02,0,0,0,.01,0,.02,0,0,0,.02,0,.03,0,0,0,.01,0,.02,0,.01,0,.02,0,.04,0,0,0,.01,0,.02,0,.01,0,.03,0,.04,0,0,0,.01,0,.02,0,.02,0,.03,0,.05,0,0,0,.01,0,.02,0,.02,0,.04,0,.05,0,0,0,.01,0,.02,0,.02,0,.04,0,.06,0,0,0,.02,0,.03,0,.02,0,.04,0,.06,0,.01,0,.02,0,.03,0,.02,0,.04,0,.05,0,.01,0,.03,0,.04,0,.01,0,.03,0,.04,0,.02,0,.04,0,.06,0,0,0,.01,0,.02.01.16.03.33.05.51-.01,0-.03,0-.04,0,0,0,0,0,0,0-.04,0-.08,0-.12,0-.01,0-.02.01-.02.02,0,.02.01.03.02.04,0,0,0,.02.01.03,0,0,0,0,0,.01,0,.02.02.03.02.05,0,0,0,0,0,0,0,.02.02.03.03.05,0,0,0,0,0,0,0,.02.02.03.03.05,0,0,0,0,0,0,0,.01.02.03.03.04,0,0,0,0,0,0,0,.01.02.02.03.04,0,0,0,0,0,0,0,.01.02.02.03.03,0,0,0,0,0,0,0,0,.02.02.03.03,0,0,0,0,0,0,0,0,0,0,0,.01.01.09.03.18.04.27,0,0,0,.02,0,.02.02.09.03.19.05.28,0,0,0,0,0,0-.02-.01-.04-.02-.07-.03,0,0-.01,0-.02,0-.02-.01-.05-.02-.07-.03,0,0,0,0,0,0-.02,0-.04-.02-.07-.02,0,0-.01,0-.02,0-.02,0-.04-.01-.06-.02,0,0,0,0,0,0-.01,0-.03,0-.03.02,0,.01,0,.03,0,.04,0,0,0,0,0,0,0,.01,0,.03,0,.05,0,0,0,0,0,0,0,.01,0,.03,0,.04,0,0,0,0,0,.01,0,.01,0,.03.01.04,0,0,0,.01,0,.02,0,.01,0,.03.02.04,0,0,0,.01,0,.02,0,.01.01.02.02.04,0,0,0,.02.01.03,0,.01.01.02.02.03,0,0,.01.02.02.03,0,0,.01.02.02.03,0,.01.01.02.02.03,0,0,.01.02.02.02,0,.01.02.02.02.04,0,0,0,.01.01.02,0,.01.02.03.03.04,0,0,0,0,0,.01.01.01.02.03.03.04,0,0,0,0,0,0,.06.07.12.13.18.17.04.17.08.35.13.52-.05-.02-.1-.03-.15-.04,0,0,0,0,0,0-.02,0-.03,0-.05,0,0,0,0,0-.01,0-.01,0-.02,0-.04,0-.01,0-.02,0-.03,0,0,0-.01,0-.02,0-.03,0-.07,0-.1,0,0,0,0,0,0,0h0s0,0,0,0c-.02,0-.04.02-.03.04.01.07.04.16.09.25,0,0,0,0,0,.01.01.03.02.05.04.08,0,0,0,.02.01.03.01.02.02.04.04.07,0,.01.01.02.02.04.01.02.02.04.03.06,0,.02.02.03.03.05.01.02.02.03.03.05.01.02.02.03.03.05,0,.01.02.03.03.04.01.02.03.04.04.06,0,.01.02.02.03.04.01.02.03.04.04.06,0,.01.02.02.02.03.01.02.03.04.04.05,0,0,.02.02.02.03.01.02.03.03.04.05,0,0,.02.02.02.03.01.02.03.03.04.05,0,0,.02.02.02.03.01.01.03.03.04.04,0,0,.02.02.02.02.01.01.02.02.04.03,0,0,.02.01.02.02.01,0,.02.02.03.03,0,0,.01,0,.02.01,0,0,0,0,0,0,.02.05.04.1.06.15,0,0,0,.01,0,.02.07.16.15.32.23.47,0,0,0,.02.01.03.02.04.04.08.07.12,0,.01.01.02.02.04.02.04.04.07.07.11,0,.01.01.02.02.03.06.09.12.18.18.26,0,.01.02.02.02.03.02.03.05.06.07.09.01.01.02.03.03.04.02.03.04.05.07.08.01.01.02.02.03.04.03.03.05.05.08.08,0,0,.02.02.03.03.03.03.07.07.11.1,0,0,.02.01.02.02.03.02.06.05.08.07.01.01.03.02.04.03.02.02.05.04.07.05.01,0,.03.02.04.03.03.02.05.03.08.05.01,0,.03.02.04.02.04.02.08.04.12.06,0,0,0,0,0,0,.01,0,.03,0,.04,0,.02,0,.04-.02.04-.05.01-.39-.3-1.38-.7-2.5-.61-1.72-1.39-3.73-1.45-4.29.08-.15.29-.52.52-.98.22-.06.34-.02.36.23.03.35.02.41.06.43.05.02.32-.22.44-.21.12.01.24.13.19.31,0,0,0,0,0,0,.01,0,.26-.17.25-.45,0-.29-.52-.85-.47-1.15.05-.3.2-.57.41-.56.2.01.34.23.32.38-.01.1,0,.19,0,.24,0,.02.02.03.04.02.04-.02.13-.05.2-.06.04,0,.07,0,.1-.01.03,0,.04-.04.01-.06-.08-.05-.19-.15-.14-.27.08-.18.13-.28.25-.27.1,0,.26.02.4.25.02.03.06.01.06-.02-.19-1.19-1.01-.81-1.27-1.36-.07-.16-.06-.38,0-.61.01-.01.02-.03.03-.04.02-.02.04-.05.05-.07.03-.05.07-.09.1-.14,0,0,0,0,0,0,.01,0,.02,0,.03.01,0,0,.01,0,.02,0,.01,0,.02,0,.03.01,0,0,0,0,.01,0,.02,0,.05.02.07.02,0,0,0,0,.01,0,.01,0,.02,0,.03,0,0,0,.01,0,.02,0,.01,0,.02,0,.03,0,0,0,.01,0,.02,0,.01,0,.02,0,.04,0,.01,0,.02,0,.03,0,0,0,0,0,.01,0,.01,0,.02,0,.03,0,0,0,0,0,0,0,.07,0,.11.01.11.01-.02.01-.03.03-.05.04-.04.03-.08.07-.11.09,0,0,0,0,0,.01,0,0,0,.02,0,.03,0,0,0,0,0,.01.15.16.61.2.85.21,0,0,0,0,0,0,0,0,0,0,0,0,.09,0,.15,0,.15,0l-.06.08-.03.03s0,0,0,.01c0,0,0,.01,0,.01,0,0,0,0,0,0,.03,0,.06,0,.1.01.17,0,.4,0,.4,0,.04,0,.07,0,.1-.01.11-.02.21-.06.27-.09.02,0,.04,0,.06.01,0,.01,0,.02,0,.03,0,0,0,.01,0,.02,0,.01,0,.03,0,.05,0,0,0,.02,0,.03,0,.01,0,.03,0,.04,0,0,0,.02,0,.03,0,.02,0,.05,0,.07,0,0,0,0,0,0,0,.04,0,.09,0,.14,0,.01,0,.02,0,.04,0,.02,0,.04,0,.06,0,.02,0,.03,0,.05,0,.02,0,.04,0,.06,0,.02,0,.04,0,.06,0,.03,0,.06,0,.09,0,.02,0,.05,0,.07,0,.02,0,.04,0,.06,0,.02,0,.05,0,.07,0,.02,0,.04,0,.06,0,.03,0,.06,0,.09,0,.02,0,.03,0,.05,0,.04-.01.09-.02.14,0,.02,0,.03,0,.05,0,.02,0,.04-.01.07,0,0,0,0-.01.01,0,0-.01.01-.02.02,0,0-.01.01-.02.02,0,0-.01.01-.02.02,0,0-.01.01-.02.02,0,0-.01.01-.02.02,0,0-.01.01-.02.02,0,0,0,0-.01.01,0,0-.01.02-.02.02,0,0,0,0,0,.01,0,0-.01.02-.02.02,0,0,0,0,0,0,0,0-.01.01-.01.02,0,0,0,0,0,0,0,0,0,.01,0,.02,0,0,0,0,0,0,0,0,0,0,0,.01,0,0,0,.01,0,.02,0,0,0,0,0,0,0,0,0,0,0,0,0,0,0,0,0,0,0,0,0,0,0,0,0,0,0,0,.01,0,0,0,0,0,0,0,0,0,.01,0,.02,0,0,0,0,0,0,0,0,0,.02,0,.02,0,0,0,0,0,0,0,.02,0,.04,0,.05,0,0,.03-.01.05-.02.08,0,.02-.01.04-.02.07-.02.07-.06.16-.1.26,0,0,0,0-.01,0,0,0-.02.01-.02.02-.01.01-.02.02-.04.03,0,0-.01.01-.02.02-.02.02-.04.03-.06.05,0,0,0,0,0,0-.02.02-.03.03-.05.05,0,0,0,0-.01.01-.01.01-.03.03-.04.04,0,0,0,0-.01.01-.02.02-.03.03-.05.05,0,0,0,0,0,0-.02.02-.03.04-.05.05,0,0,0,0-.01.01-.01.01-.02.03-.03.04,0,0,0,.01-.01.02,0,.01-.02.02-.02.03,0,0,0,0,0,.01,0,.01-.02.03-.03.04,0,0,0,0,0,.01,0,0,0,.02-.01.02,0,0,0,0,0,.01,0,0,0,.01,0,.02,0,0,0,0,0,0,0,0,0,.01,0,.01,0,0,0,0,0,0,0,.01.03.02.05.03h0s.09.02.14.02c0,0,0,0,0,0-.08.13-.16.26-.25.38,0,0,0,0,0,0-.03.04-.06.08-.09.11,0,0,0,0,0,0-.03.04-.06.07-.1.1,0,0,0,0-.01.01-.03.03-.07.06-.1.1,0,0,0,0-.01.01-.03.03-.07.06-.11.09,0,0,0,0,0,0-.04.03-.07.05-.11.08,0,0,0,0,0,0-.03.02-.02.07.02.07.48-.04.91-.12,1.41-.66.41-.44.73-1.04.97-1.61.31-.76.47-1.47.49-1.69-.02-.02-.03-.03-.05-.05,0,0,0,0,0,0-.01-.01-.03-.02-.04-.04,0,0,0,0,0,0-.01-.01-.03-.02-.04-.03,0,0,0,0,0,0-.03-.02-.07-.04-.1-.06,0,0,0,0-.01,0-.01,0-.03-.01-.04-.02,0,0-.01,0-.02,0-.01,0-.02,0-.04-.01,0,0-.01,0-.02,0-.01,0-.03,0-.05,0,0,0-.01,0-.02,0-.01,0-.02,0-.04,0,0,0-.02,0-.03,0,0,0-.02,0-.02,0,0,0-.02,0-.03,0,0,0-.01,0-.02,0-.01,0-.02,0-.03,0,0,0,0,0,0,0-.03,0-.06,0-.09,0-.07-.04-.16-.1-.26-.15,0,0,0,0,0,0-.03-.01-.05-.03-.08-.04,0,0,0,0,0,0-.29-.15-.63-.33-.84-.45,0,0,0,0,0,0-.01,0-.02-.01-.03-.02-.02-.01-.05-.03-.07-.04,0,0,0,0,0,0-.01,0-.02-.02-.04-.02,0,0,0,0,0,0-.01,0-.03-.02-.04-.03,0,0,0,0,0,0-.06-.04-.12-.08-.18-.13,0,0,0,0-.01,0-.01,0-.03-.02-.04-.03,0,0-.01,0-.02-.01-.01,0-.02-.02-.04-.03,0,0-.02-.01-.03-.02,0,0-.02-.01-.03-.02-.15-.11-.3-.22-.42-.32,0,0,0,0,0,0,.05-.04.1-.08.15-.13,0,0,0,0,0,0,.03-.02.05-.05.08-.08,0,0,0,0,0,0,.06-.06.11-.12.17-.18,0,0,0,0,.01-.01.03-.03.06-.06.08-.1,0,0,0,0,0-.01.06-.07.12-.14.17-.22,0,0,0,0,.01-.01.03-.04.05-.07.08-.11,0,0,0,0,0-.01.05-.08.11-.16.16-.24,0,0,0-.01,0-.02.02-.04.05-.08.07-.12,0,0,0,0,0-.01.05-.08.09-.16.12-.25,0,0,0,0,0-.01.02-.04.03-.08.05-.12,0,0,0,0,0-.01.01-.04.03-.08.04-.12,0-.03,0-.06,0-.09,0,0,0,0,0-.01,0-.03,0-.06,0-.09,0,0,0-.01,0-.02,0-.07,0-.14,0-.22,0,0,0,0,0,0,0-.04,0-.07,0-.11,0,0,0,0,0-.01,0-.04,0-.08,0-.12,0,0,0,0,0,0,0-.08-.02-.16-.03-.24,0,0,0,0,0-.01,0,0,0,0,0,0,.02-.02.04-.05.05-.07,0,0,0,0,0,0,.02-.03.04-.05.05-.07,0,0,0,0,0-.01.02-.02.03-.05.04-.07,0,0,0,0,0,0,.01-.02.02-.04.03-.06.01-.02.02-.05.03-.07,0,0,0-.02,0-.02,0-.02,0-.03.01-.05,0,0,0-.02,0-.03,0-.01,0-.03,0-.04,0,0,0-.02,0-.03,0-.01,0-.03,0-.04,0,0,0-.02,0-.03,0-.01,0-.02,0-.04,0,0,0-.02,0-.03,0-.01,0-.02,0-.03,0,0,0-.02,0-.03,0-.01,0-.02,0-.03,0,0,0-.02,0-.03,0,0,0-.02,0-.03,0,0,0-.02,0-.02,0,0,0-.02-.01-.03,0,0,0-.02-.01-.02,0,0,0-.02-.01-.03,0,0,0-.01-.01-.02,0,0,0-.02-.01-.02,0,0,0-.01-.01-.02,0,0,0-.01-.01-.02,0,0,0-.01-.01-.02,0,0,0-.01-.01-.02,0,0,0-.01-.01-.02,0,0,0-.01-.01-.02,0,0,0-.01-.01-.02,0,0,0-.01-.01-.02,0,0,0-.01-.01-.02,0,0,0,0,0,0,0,0,0-.02,0-.03,0,0,0,0,0,0,0,0,0-.01,0-.02,0,0,0-.01,0-.02,0,0,0-.01,0-.02,0,0,0-.01,0-.02,0,0,0-.01,0-.02,0,0,0-.01,0-.02,0,0,0-.01,0-.02,0,0,0-.01,0-.02,0,0,0-.01,0-.02,0,0,0-.02,0-.02,0,0,0-.01,0-.02,0,0,0-.02,0-.02,0,0,0-.01,0-.02,0,0,0-.01,0-.02,0,0,0-.01,0-.02,0,0,0-.01-.01-.02,0,0,0-.01-.01-.02,0,0,0-.01-.01-.02,0,0,0-.01-.01-.02,0,0-.01-.01-.02-.02,0,0,0-.01-.01-.02,0,0-.01-.01-.02-.02,0,0-.01,0-.02-.01,0,0-.02-.01-.02-.02,0,0-.01,0-.02-.01,0,0-.02,0-.03-.01,0,0-.01,0-.02,0-.01,0-.02,0-.03-.01,0,0-.01,0-.02,0-.02,0-.03,0-.05-.01-.02,0-.04,0-.06,0,0,0-.01,0-.02,0-.02,0-.03,0-.05,0,0,0-.02,0-.03,0-.02,0-.03,0-.05,0-.16-.05-.45-.26-.84-.45,0,0,0,0,.01,0,.03,0,.07,0,.11-.01.06,0,.13-.02.19-.03,0,0,0,0,0,0,.03,0,.06-.01.09-.02,0,0,0,0,0,0,0,0,0,0,0,0,.02,0,.05-.01.07-.02,0,0,0,0,0,0,0,0,0,0,0,0,.01,0,.02-.01.03-.01.02,0,.03-.01.05-.02,0,0,0,0,0,0,0,0,0,0,0,0,.01,0,.03-.01.04-.02.01,0,.03-.01.04-.02,0,0,0,0,0,0,0,0,0,0,0,0,.01,0,.02-.01.03-.02.01,0,.03-.02.04-.02,0,0,0,0,0,0,0,0,0,0,0,0,.02-.01.03-.02.04-.03.01,0,.02-.01.03-.02,0,0,0,0,0,0,0,0,0,0,0,0,.01-.01.03-.02.04-.04,0,0,.02-.01.03-.02,0,0,0,0,0,0,0,0,0,0,0,0,.01-.01.03-.03.04-.04,0,0,.02-.01.02-.02,0,0,0,0,0,0,0,0,0,0,0,0,.03-.04.07-.07.1-.11,0,0,0,0,0-.01.03-.04.06-.07.09-.11,0,0,0-.01.01-.02.03-.04.06-.09.09-.13,0,0,0,0,0-.01.03-.04.05-.09.07-.13,0-.01.01-.02.02-.03.03-.05.05-.1.07-.15,0,0,0,0,0,0,.02-.05.04-.1.06-.15,0-.01,0-.02.01-.04.04-.11.08-.22.11-.34,0,0,0-.01,0-.02.08.03.16.07.24.12,0,0,0,0,0,0,.02.01.03.02.05.03,0,0,0,0,0,0,.03.02.06.05.09.08,0,0,0,0,0,0,.01.01.02.02.04.04,0,0,0,0,.01.01.01.01.02.02.03.04,0,0,0,0,.01.01.01.01.02.03.03.05,0,0,0,0,0,0,.01.02.03.04.04.06,0,0,0,0,0,.01.01.02.02.03.03.05,0,0,0,.01.01.02,0,.01.02.03.02.05,0,0,0,.02.01.02,0,.02.01.03.02.05,0,0,0,.02,0,.02,0,.02.02.05.03.07,0,0,0,0,0,0,.01.03.02.07.03.1,0,.01,0,.03,0,.04,0,0,0,0,0,.01,0,.02-.02.05-.02.08,0,0,0,0,0,0-.01.04-.03.09-.04.13,0,.01,0,.02,0,.03,0,0,0,.02,0,.02,0,.01,0,.02,0,.03,0,0,0,.01,0,.02,0,0,0,.02,0,.03,0,0,0,.01,0,.02,0,0,0,.02,0,.02,0,0,0,0,0,.01,0,0,0,.02,0,.02,0,0,0,0,0,0,0,0,0,.01,0,.02,0,0,0,0,0,0,0,0,0,0,.01.02,0,0,0,0,0,0,0,0,.01.01.02.02,0,0,0,0,0,0,0,0,.01.01.02.02,0,0,0,0,.01,0,0,0,0,0,.01,0,0,0,.01,0,.02.01,0,0,0,0,0,0,0,0,.01.01.02.02,0,0,0,0,0,.01,0,0,0,.02,0,.02,0,.03,0,.06,0,.09,0,0,0,.01,0,.02,0,.03,0,.06-.01.1,0,0,0,.02,0,.03,0,.03,0,.06-.01.09,0,0,0,0,0,0,0,.03-.01.06-.02.09,0,0,0,.01,0,.02,0,.03-.01.06-.02.09,0,0,0,0,0,0,0,.03-.01.05-.02.08,0,0,0,0,0,.01,0,.03-.01.05-.02.08,0,0,0,0,0,0,0,.02-.01.05-.02.07,0,0,0,0,0,0,0,.02-.01.04-.02.06,0,0,0,0,0,.01,0,.01,0,.03-.01.04,0,0,0,0,0,0-.02.04.02.09.07.08,0,0,0,0,0,0,1.52-.21,1.33-1.65,1.33-1.65,0,0-.35-.85-1.18-1.31h0s-.06-.03-.1-.05c0,0,0,0,0,0-.03-.02-.07-.03-.1-.05,0,0,0,0,0,0-.03-.01-.07-.03-.1-.04,0,0,0,0,0,0-.03-.01-.07-.02-.1-.04,0,0,0,0,0,0-.03-.01-.07-.02-.11-.03,0,0,0,0-.01,0-.04,0-.07-.02-.11-.02,0,0,0,0,0,0,0,0,0-.02,0-.02,0-.03,0-.06,0-.08,0-.02,0-.03,0-.05,0,0,0,0,0,0,0-.03,0-.07,0-.1,0-.02,0-.03,0-.05,0-.03,0-.06,0-.1,0-.01,0-.02,0-.04,0,0,0,0,0-.01,0-.03,0-.06,0-.1,0-.01,0-.02,0-.04,0,0,0,0,0,0,.01-.05.02-.1.03-.16,0,0,0,0,0,0,0-.02,0-.05,0-.07,0,0,0-.01,0-.02,0-.02,0-.04,0-.06,0-.01,0-.02,0-.03,0-.02,0-.04,0-.05,0-.02,0-.03,0-.05,0-.01,0-.03,0-.04,0-.02,0-.05,0-.07,0,0,0-.01,0-.02,0-.03,0-.06,0-.09,0-.04-.01-.08-.02-.11,0-.01,0-.02,0-.03,0-.02,0-.05-.01-.07,0-.01,0-.03-.01-.04,0-.02,0-.04-.02-.06,0-.02,0-.03-.01-.04,0-.02-.01-.03-.02-.05,0-.01-.01-.03-.02-.04,0-.02-.01-.03-.02-.05,0-.01-.01-.03-.02-.04,0-.01-.01-.03-.02-.04,0-.01-.01-.03-.02-.04,0-.01-.01-.02-.02-.04,0-.01-.01-.03-.02-.04,0,0,0,0,0,0,0,0,0-.02,0-.03,0-.02-.01-.03-.02-.05,0-.03-.02-.05-.03-.08,0,0,0-.02,0-.02,0,0,.01-.07.03-.16.04-.23.1-.66.09-.84-.02-.25-.12-1.05-.31-1.35-.01-.02-.02-.04-.04-.05-.16-.19-.24-.08-.28.02-.01.03-.02.07-.03.09,0,.01-.01.03-.02.06,0,0,0,0,0,0,0,.01,0,.02-.02.04,0,0,0,0,0,0,0,.02-.01.03-.02.05,0,0,0,0,0,0,0,.02-.02.04-.02.05,0,0,0,.02-.01.02,0,.01-.01.02-.02.04,0,0,0,.02-.01.03,0,.01-.01.02-.02.03,0,.01-.01.02-.02.03,0,.01-.01.03-.02.04,0,.01-.02.03-.02.04,0,.01-.02.03-.03.04,0,0-.01.02-.02.03,0,.01-.01.02-.02.03,0,0-.01.02-.02.03,0,.01-.02.02-.02.03,0,0-.01.02-.02.03-.01.01-.02.03-.03.04,0,0,0,.01-.01.02-.01.01-.02.03-.04.04,0-.02,0-.04,0-.06,0,0,0-.01,0-.02,0-.03,0-.06,0-.08,0,0,0-.01,0-.02,0-.03,0-.07,0-.1,0,0,0,0,0-.01,0-.04,0-.07-.01-.11,0,0,0,0,0,0,0-.04-.01-.08-.02-.12,0,0,0-.01,0-.02,0-.04-.02-.08-.03-.13,0,0,0-.02,0-.02-.01-.04-.02-.09-.03-.13,0,0,0-.02,0-.03-.01-.05-.03-.1-.04-.15,0,0,0-.01,0-.02-.02-.05-.04-.11-.06-.16-.04-.11-.09-.21-.14-.31,0,0,0,0,0,0-.24-.45-.56-.8-.7-.94-.11-.11-.23-.12-.25.09,0,.01,0,.03,0,.05,0,.04,0,.09,0,.14,0,.31-.03.81-.08,1.11-.03.19-.15.49-.35.61-.05.03-.1.05-.15.05,0,0-.01,0-.02,0-.05,0-.1,0-.15.01-.02,0-.03,0-.05,0-.04,0-.08,0-.11.02-.02,0-.04,0-.06.01-.03,0-.07.01-.1.02-.02,0-.04.01-.06.02-.01,0-.03,0-.04.01-.03-.02-.06-.05-.1-.08,0,0,0,0-.01-.01-.01,0-.02-.02-.03-.03-.01,0-.02-.02-.03-.03,0,0-.01-.01-.02-.02-.01-.01-.03-.03-.05-.05,0,0,0,0,0,0-.08-.09-.17-.19-.26-.31-.06-.08-.11-.15-.15-.23-.17-.3-.26-.63-.31-.91-.01-.08-.02-.15-.03-.22,0-.04,0-.08-.01-.1-.02-.07-.04-.1-.08-.11-.02,0-.05,0-.08.02-.05.03-.1.1-.14.15-.06.1-.51.89-.46,1.8,0,.05,0,.1.01.15,0,.01,0,.02,0,.04,0,.04,0,.08.01.12,0,0,0,.02,0,.03,0,.05.01.09.02.14,0,0,0,.01,0,.02,0,.04.01.07.02.11,0,0,0,.02,0,.03,0,.04.01.08.02.11,0,0,0,0,0,0,0,.04.02.08.03.11,0,0,0,.01,0,.02,0,.03.01.06.02.09,0,0,0,.01,0,.02,0,.03.02.06.03.09,0,0,0,0,0,0,0,.03.02.05.02.07,0,0,0,.02,0,.03,0,.01,0,.03.01.04.02.05.03.09.04.13,0,0,0,0,0,.01,0,.02-.02.03-.03.05,0,0,0,.02-.01.02,0,0,0,0,0,0-.02,0-.04-.02-.06-.03,0,0,0,0-.01,0-.02-.01-.03-.02-.05-.03,0,0,0,0,0,0-.1-.07-.18-.13-.26-.17,0,0,0,0,0,0-.07-.04-.13-.06-.17-.04,0,0,0,0,0,0,0,0,0,0,0,0,0,0,0,0,0,0,0,0,0,0,0,0,0,0,0,0,0,0,0,0,0,0,0,.01,0,0,0,0,0,0,0,0,0,0,0,.01,0,0,0,0,0,.01,0,0,0,.01,0,.02,0,0,0,0,0,.01,0,0,0,.02,0,.03,0,0,0,0,0,.01,0,.01,0,.02,0,.04,0,0,0,.01,0,.02,0,0,0,.01,0,.02,0,0,0,.02,0,.03,0,0,0,.01,0,.02,0,.01,0,.02,0,.03,0,0,0,.01,0,.02,0,.01,0,.03,0,.04,0,0,0,0,0,.01,0,.34.05.88.33,1.38,0,0,0,0,0,0,0,.01,0,.03,0,.04,0,.02,0,.04,0,.06,0,.03,0,.07.01.1,0,.02,0,.04,0,.06,0,.05.02.1.03.15,0,.01,0,.02,0,.03,0,.04.02.08.03.12,0,.02,0,.04.01.05,0,.04.02.07.03.11,0,.02.01.04.02.05.01.04.03.07.04.11,0,.01.01.03.02.04.02.05.04.1.07.16.04.09.08.18.13.27.01.02.02.04.03.06,0,0,0,0,0,0-.05.03-.12.06-.2.11,0,0-.01,0-.02.01,0,0-.01,0-.02.01,0,0-.02.01-.03.02,0,0-.01,0-.02.01,0,0-.02.01-.03.02,0,0-.01,0-.02.01-.01,0-.02.02-.03.02,0,0,0,0-.01,0-.02.01-.03.02-.05.03,0,0,0,0,0,0-.03.02-.07.05-.1.07,0,0,0,0,0,0-.01.01-.03.02-.04.03,0,0,0,0,0,0-.01.01-.03.02-.04.03,0,0,0,0,0,0-.01.01-.03.03-.04.04,0,0,0,0,0,0-.03.03-.06.06-.09.09,0,0,0,0,0,0-.01.01-.03.03-.04.04,0,0,0,0,0,0-.01.01-.02.03-.03.04,0,0,0,0,0,.01,0,.01-.02.03-.03.04,0,0,0,0,0,0-.01.02-.02.03-.03.05,0,0,0,0,0,0-.01.02-.02.04-.03.05,0,0,0,0,0,0,0,.02-.02.03-.02.05,0,0,0,0,0,.01,0,.01-.01.03-.02.04,0,0,0,.01,0,.02,0,.01,0,.03-.01.04,0,0,0,.01,0,.02,0,.01,0,.03,0,.04,0,0,0,0,0,.01,0,.02,0,.04,0,.06,0,.01,0,.02,0,.03,0,.01,0,.02,0,.03,0,0,0,.02,0,.03,0,.01,0,.03,0,.04,0,0,0,.02,0,.03,0,.01,0,.03,0,.04,0,0,0,.02,0,.03,0,.01,0,.03,0,.04,0,0,0,.02,0,.03,0,.01,0,.03,0,.04,0,0,0,.02,0,.03,0,.01,0,.03,0,.04,0,.01,0,.02,0,.03,0,.02,0,.03.01.05,0,.01,0,.02,0,.03,0,.02,0,.03.01.05,0,.01,0,.02,0,.03,0,.02,0,.03.02.05,0,.01,0,.02.01.03,0,.02.01.03.02.05,0,0,0,.02.01.03,0,.02.01.03.02.05,0,0,0,.02.01.03,0,.02.02.04.03.05,0,0,0,.02.01.02.01.02.02.04.04.06,0,0,0,0,0,.01.05.08.11.16.17.23-.67.19-1.03.7-1.48,1.22l-1.73,1.26s-.02,0-.03.01c-.01,0-.02,0-.03.01-.02,0-.05.02-.07.03-.01,0-.02,0-.03.01-.02,0-.05.02-.07.03,0,0-.02,0-.03.01-.03.01-.05.02-.08.03,0,0-.02,0-.03.01-.02,0-.05.02-.07.03-.04.02-.08.03-.12.05,0,0,0,0,0,0-.65.25-1.31.48-2.1,1.06-1.39,1.02-2.15,2.46-2.29,3.59-.04.31-.12.58-.22.81-.01.03.02.05.04.04ZM250.77,91.81s.01.02.02.03c.02.02.03.04.05.06,0,.01.02.03.03.04.02.03.05.06.08.09,0,0,0,0,0,0-.01.07-.03.13-.04.19,0,0,0,.01,0,.02-.01.06-.03.12-.05.18,0,0,0,0,0,.01,0,0,0,0,0,0,0,0,0,0,0,0-.01-.02-.02-.05-.04-.07,0,0,0,0,0-.01,0,0,0-.01,0-.02,0-.01,0-.02-.01-.03,0,0,0-.01,0-.02,0,0,0-.02,0-.03,0,0,0-.01,0-.02,0-.01,0-.03,0-.04,0,0,0-.01,0-.02,0-.01,0-.03,0-.04,0,0,0-.01,0-.02,0-.02,0-.03,0-.05,0,0,0,0,0-.01,0-.02,0-.04,0-.07,0,0,0-.01,0-.02,0-.02,0-.04,0-.06,0,0,0-.01,0-.02,0-.02.01-.05.02-.08Z"/>
        <path class="cls-6" d="M225.8,97.17c-.24-.64-.72-1.19-1.16-1.75,0-.03,0-.06,0-.08,0-.01,0-.02,0-.04,0-.15-.02-.29-.04-.43-.01-.1-.03-.2-.04-.3.71-.51.56-.9.56-.9l-.47-1.14c.26-.38.24-.64.24-.64l-.47-1.38c.1-.15.13-.24.13-.24l-.84-2.12s-.68.93-1.74,1.38c-.13.06-.3.11-.49.17-2.07-1.64-4.62-2.44-7.18-2.57-.49-.65-.32-1.3-.32-1.3-1.14,0-3.04.07-4.82.96-.02-.09-.03-.17-.05-.26-.06-.32.03-.66.12-.97,1.37-.1,2.09-.18,2.09-.18,0,0,.32-1.69.42-3.21,0,0,0,0,0,0-.57.71-1.8,2.08-2.01,2.11-.21,0-2.68.04-2.82-.03-.23-.09-1.8-1.45-2.02-1.7,0,0,0,0,0,0,.01.26.27,1.82.51,2.55,0,0,.74.19,1.68.31.05.38.15.92.34,1.49.09.28.23.54.38.76-.31.25-.6.54-.88.87-1.08.51-2.05,1.15-2.82,1.88,0,0,.02.1.06.28-.17.11-.32.21-.46.32-.5.35-1.55.97-1.97,3.48,0,0-.31,2.16-.22,3.06h0s0,0,0,0c-.05.05-.09.1-.14.15-.56.44-1.23,1.32-1.79,3.06.13,4.16,3.69,6.56,4.13,6.83.02.01.05,0,.05-.02.07-.33.45-2.22.71-3.8.09-.54.15-1.07.18-1.56.22-.11.43-.19.52-.32-.06-.36-.25-.65-.46-.86.01-.57,0-1.04,0-1.37,0,0,0,0,0,0,0,0,.18-.56.46-1.2,0,0,0,0,0,0,0,0,.56-1.18.89-1.55.12.24.27.42.46.54.2.13.44.24.69.34.16.2.31.38.44.53.25.33.5.65.76.97.02.1.03.19.05.29-.08-.04-.13-.07-.13-.07,0,0-.03.02-.25.11.09.24.62,1.8.62,1.8,0,0-.01.17.72.38.12.17.24.34.37.5,0,0-1.52,2.3-1.68,3.7.35,1.32.7,1.84.84,2.47.13.63.09,2.37-.03,2.65.43.11.9.11,1.08,0,.08-.09.56-.73.9-1.6.1-.03.21-.06.32-.12,0-.18-.05-.35-.12-.5.18-.68.22-1.43-.07-2.15.48-.32,1.3-1.11,1.95-1.92.34,1.31,1.17,2.47,1.17,2.47,0,0,.54.15,1.39,1.25s.89,2.99.89,2.99c0,0,.7.12.98-.12.23-.9.35-1.64.4-2.26.07-.05.13-.12.17-.21-.02-.15-.09-.4-.15-.6-.04-1.13-.35-1.81-.56-2.55.51-1.15.42-2.43.32-3.11,1.1-.78,2.02-1.9,2.92-3.14.22-.3.43-.69.62-1.13.35.56.6,1.08.72,1.35-.29.57-.46,1.14-.43,1.6-.21.49-.34.9-.34,1.08,0,.01,0,.03.02.03.19.11.62.38,1,.34.04.17.44,3.24,1.3,5.7,0,0,3.29-2.11,4.07-5.77.6-2.83-.45-4.95-1.66-5.58Z"/>
        <path class="cls-2" d="M276.73,99.57c-.12-.03-.23-.02-.34-.02-.2,0-.4.02-.6.02-.4,0-.8,0-1.2-.05-.5-.06-.98-.19-1.46-.34.32-.54.44-1.18.27-1.79-.1-.37-.28-.65-.61-.84-.06-.03-.11-.07-.17-.09,0,0,0,0,0,0,0,0,0,0-.02,0,0,0-.01,0-.01.01-.02.01-.03.03-.02.05v.02c.05.23.05.46,0,.69-.05-.19-.12-.38-.2-.56-.08-.16-.17-.31-.26-.46,0,0-.03-.05-.05-.09-.21-.8-.74-1.54-1.43-1.98-.42-.28-.89-.47-1.38-.58,0-.06.01-.13.02-.2.17.03.35.05.53.06.14,0,.27.02.41-.02.17-.08.13-.43.13-.59-.06-.62-.22-1.24-.52-1.8-.15-.28-.38-.5-.61-.71-.23-.21-.48-.39-.74-.57-.25-.18-.52-.34-.81-.46-.14-.06-.29-.12-.44-.16-.15-.04-.3-.09-.46-.09,0,0-.03,0-.03,0,0,0,.02.02.02.02.32.32.48.76.64,1.17.04.11.08.21.11.32.09.32.03.66-.03.99-.05.28-.15.54-.2.83,0,.03,0,.07,0,.1.11.32,1.27.71,1.6.81.1.03.2.05.3.07,0,.06,0,.13,0,.19-.49-.11-1-.15-1.49-.15-.37,0-.73.03-1.09.08-.02-.04-.05-.08-.07-.12-.08-.14-.17-.27-.27-.41.18-.06.35-.14.52-.23.08-.04.17-.09.24-.16.04-.03.06-.09.06-.13,0-.06-.02-.1-.04-.14-.07-.16-.17-.29-.28-.42-.65-.74-1.56-1.24-2.53-1.4-.64-.12-1.3-.19-1.94-.1-.16.02-.32.04-.48.07-.16.04-.32.06-.47.15,0,0-.03.02-.03.02,0,0,.04,0,.04,0,.46.11.86.38,1.25.63.19.13.4.25.55.43.31.36.49.8.7,1.22.11.22.14.33.42.35.3.02.6-.01.9-.05.24-.03.47-.07.7-.13.1-.03.21-.06.31-.09.11.13.21.27.31.41.02.03.04.06.06.09-1.17.19-2.24.71-2.9,1.63-.03-.02-.07-.03-.1-.04-.18-.04-.36-.05-.54-.05-.36,0-.71.02-1.06,0-.11,0-.22-.01-.33-.05-.02,0-.04,0-.06,0-.01,0-.02.02-.02.04,0,.02,0,.02,0,.03v.02c.06.2.14.39.24.58.14.27.29.54.48.78-.02-.01-.04-.02-.06-.03-.61-.33-1.24-.69-1.72-1.2-.07-.08-.14-.17-.18-.27,0,0-.01-.02-.03-.03-.03-.01-.06.01-.06.04,0,.02,0,.02,0,.03v.02s0,.09,0,.09c.04.53.1,1.06.18,1.58.1.58.19,1.18.46,1.72.02.04.04.08.07.12-.22-.04-.37-.24-.49-.42-.01-.02-.04-.04-.06-.03-.01,0-.03.01-.03.03,0,.02,0,.04,0,.06l.02.09c.08.31.18.61.34.89-.56.26-1.08.57-1.48.94-.6.55-1.07,1.25-1.33,2.02-.08.28-.21.62.01.87.08.08.19.12.3.13.03,0,.19.02.22.03.37.06.75.11,1.13.13-.2.23-.41.47-.61.7-.2.22-.39.44-.61.63-.27.22-.56.4-.84.64-.34.28-.52.61-.31,1.04.29.51,1.41.99,1.95,1.21.36.14.85.31,1.36.42-.14.24-.28.48-.41.72-.3.6-.56,1.22-.66,1.89-.01.1-.02.21-.02.32,0,.05,0,.13,0,.18.02.11.1.21.18.27l.07.05c.08.06.19.13.27.17.94.51,2.09.42,3.06.04,0,0,.14-.06.14-.06.13-.05.24-.16.28-.29.05-.14.09-.3.13-.44.06-.23.1-.47.25-.65.17-.18.38-.3.58-.44.48-.34.87-.78,1.15-1.29.69.1,1.41.12,2.11.09.06.12.14.22.22.31.1.12.21.22.32.32.13.13.26.24.36.39.05.08.07.18.08.28.01.13,0,.28-.02.42-.05.29-.13.59-.23.88.12.33.49.44.8.51.56.12,1.15.11,1.72.04.28-.04.57-.09.84-.19,0,0,.02,0,.02,0,0,0,.02-.02.02-.02.75-.69.78-2.56.49-3.48-.09-.28-.21-.54-.34-.8.71-.66,1.08-1.57,1.1-2.68.01-.54-.05-1.07-.18-1.59.23-.02.47-.05.7-.08.66-.07,1.33-.2,1.93-.51.08-.04.19-.1.27-.14.23-.13.43-.31.62-.49.3-.3.56-.63.73-1.03.16-.37.17-.86-.31-.97ZM272.6,96.48h0,0ZM272.62,96.48s0,0-.01,0c0,0,0-.01,0-.01,0,0,0,0,0,0,0,0,0,.01,0,.02ZM272.61,96.45s0,0,0,0h0Z"/>
        <path class="cls-5" d="M325.26,111.29c-.97.06-1.46.09-2.43.14-4.46.26-9.33.07-14.47-.14-5.97-.25-12.16-.53-18.02-.11-2.22.16-3.33.24-5.56.4-.21,2.05-.31,3.08-.53,5.14-.18,1.6-.13,3.12.02,4.58-2.35-1.87-4.52-3.75-5.43-5.43-.81-1.51-1.21-2.26-2.02-3.76-13.82.13-20.73.15-34.55.13-2.14,1.75-3.22,2.62-5.39,4.36.09.98.13,1.47.22,2.45-2.06-2.01-4.17-3.76-5.9-5.22-.8-.67-1.2-1.01-2-1.68-1.78.01-2.67.02-4.45.03-9.84.08-22.08.1-31.89,1.91-3.29.61-4.93.91-8.24,1.5.85,2.16,1.27,3.24,2.12,5.39-4.21-2.86-11.39-3.68-23.03-3.33-.96.03-1.45.05-2.41.08,5.75-.84,14.32-2.37,21.07-1.07-.4-1.01-.79-2.01-1.17-2.98l2.98-.55c3.41-.6,8.11-1.53,11.47-2.02,4.38-.58,8.85-.93,13.35-1.14.57-.03,1.15-.05,1.73-.07,1.78-.07,3.58-.12,5.37-.16.55-.01,1.1-.01,1.65-.02,6.71-.09,13.44.01,20.05.03h.62c.84,0,1.67,0,2.5-.01h1.24c1.47-.01,3.28-.01,5.33-.02h1.07c1.11-.01,2.28-.01,3.49-.02h.78c2.16,0,4.44-.02,6.73-.03,1.56,0,3.13-.01,4.67-.01,1.47-.01,2.92-.01,4.32-.02,1.31,0,2.58,0,3.78,0,2.3-.01,4.35-.02,5.99-.03.77,1.44,2.01,3.78,2.79,5.2.22.33.46.64.72.94.19-2.24.52-4.49.68-6.51,5.54-.44,11.93-.87,17.5-.78,3.66.06,11.46,1.49,15.15,1.9,3.35.44,6.69.77,10.1.94Z"/>
        <path class="cls-5" d="M188.4,235.63c-2.19,5.88-4.67,13.59-6.13,18.23-6.72-4.99-13.06-11.53-18.34-20.08-.06-.08-.11-.17-.16-.25,0,0,.23.03.69.08,2.39.28,10.88,1.2,23.94,2.02Z"/>
        <path class="cls-5" d="M190.66,241.18c3.82,7.79,10.33,18.03,15.77,24.65-6.76-2.04-13.88-5.07-20.72-9.56,1.08-3.47,3.01-9.56,4.95-15.09Z"/>
        <path class="cls-5" d="M214.74,236.78c-1.39,5.9-2.68,10.76-3.72,14.67-1.13,4.27-2.03,7.63-2.57,10.52-5.94-7.55-12.87-18.89-15.81-26.09,6.47.37,13.89.69,22.1.9Z"/>
        <path class="cls-5" d="M216.96,244.55c4.2,10.84,12.27,21.62,15.17,25.31-5.17-.13-12.33-.71-20.3-2.59l.02-.42c.15-3.5,1.3-7.82,3.04-14.37.61-2.31,1.31-4.94,2.07-7.93Z"/>
        <path class="cls-7" d="M250.62,236.93c-2.29,11.18-12.08,24.75-15.9,29.73-3.84-4.99-13.65-18.59-15.92-29.78,4.96.1,10.18.16,15.64.16,5.64.03,11.04-.01,16.18-.11Z"/>
        <path class="cls-5" d="M257.58,266.85l.02.4c-8,1.89-15.17,2.47-20.3,2.61,2.89-3.69,10.96-14.47,15.17-25.31.76,2.98,1.46,5.62,2.07,7.93,1.74,6.54,2.89,10.87,3.04,14.37Z"/>
        <path class="cls-5" d="M276.76,235.95c-2.97,7.21-9.86,18.49-15.78,26.02-.54-2.89-1.44-6.25-2.57-10.52-1.04-3.9-2.32-8.73-3.7-14.61,8.16-.19,15.57-.52,22.05-.89Z"/>
        <path class="cls-5" d="M278.77,241.18c1.93,5.52,3.86,11.6,4.94,15.07-6.83,4.48-13.94,7.5-20.68,9.55,5.43-6.62,11.92-16.84,15.74-24.62Z"/>
        <path class="cls-5" d="M305.66,233.53c-5.31,8.66-11.71,15.27-18.51,20.31-1.45-4.63-3.92-12.28-6.09-18.15,15.43-.98,24.6-2.15,24.6-2.16Z"/>
      </g>
      <g>
        <path class="cls-1" d="M105.19,226.17c-.3.34-.61.57-.94.67-4.62,1.72-6.94,2.59-11.6,4.34-6.79-.76-13.59.08-20.67,1.18,5.32-21.83,5.5-44.51,10.74-66.35.37-.29.55-.44.91-.73,6.1,1.98,9.17,2.96,15.34,4.9-.03,0-.05,0-.08,0,1.19.5.6,1.36.55,2.33-4.08,15.24-8.23,30.49-11.6,45.91-1.21,1.1,16.88,7.25,17.34,7.75Z"/>
        <path class="cls-1" d="M192.89,192.54c-.05-1.22-.34-2.44-.42-3.66-4.61-4.25-11.92-8.06-14.94-13.59-11.56,1.23-17.36,1.85-29,3.14-.34.37-.51.55-.85.92,1.11,9.26,1.38,26.75,4.33,32.47.98,1.91-.38,19.26,2.96,18.2,16.76-5.31,22.49-7.55,35.29-17.77,3.37-2.69,2.35-15.35,2.63-19.71ZM167.9,214.81c-.93.11-1.4.17-2.33.29-.56-8.36-.75-18.95-.42-27.32,3.31-.38,4.96-.57,8.27-.95,2.17,6.4,6.83,16.32,5.86,19.43-.77,2.45-6.9,5.08-11.38,8.55Z"/>
        <path class="cls-1" d="M217.25,186.78c-.24,10.46-.41,19.92-2.4,30.34-4.38.6-8.23,2.93-11.42,5.43-.26,0-.39,0-.64,0-1.19-15.37-1.18-31.73.83-47.03,4.13-.69,7.88-.97,12.08-.79,3.16,1.99,1.08,9.17,1.55,12.04Z"/>
        <path class="cls-1" d="M298.68,193.77c-.64.56-.96.85-1.6,1.41-.43-3.8-.06-9.1-2.25-12.54-1.27.53-1.9.79-3.17,1.32,1.2,12.9.38,26.1.29,38.95-1.84-.14-2.76-.21-4.6-.34-2.88-2.14-2.35-3.78-6.01-5.48,0,0-2.42-23.83-3.08-34.72-1.11.12-1.67.18-2.78.3-1.92,2.72-1.48,7.57-4.18,9.52-1.09-3.07-4.84-7.53-5.91-10.15-.42-3.29-1.94-7.8-.37-10.8,5.72.68,13.19-.07,18.96-.12,5.78-.05,11.86.73,17.44-.72,1.81,2.46,2.41,4.52,2.58,7.37.65,5.36-4.15,10.97-5.32,15.99Z"/>
        <path class="cls-1" d="M347.34,196.18c-3.12-5.48-6.79-12.74-10.4-17.93-.57-.08-16.41-1.72-16.42-1.66-5.72,2.58-8.45,10.34-10.39,15.43.27,4.88.98,10.57.44,15.46,2.93,5.52,8.87,9.27,14.86,12.93,1.33,1.25,18.46-6.2,19.84-6.52,3.46-2.32,2.48-8.5,2.63-12.28-.1-2.6-.28-3.41-.56-5.43ZM332.5,203c-1.12,1.05-2.94,1.61-5.22,1.56-.26,0-.51-.03-.77-.05-.26-.02-.52-.04-.79-.08-.77-.11-1.62-.28-2.53-.49-.27-.21-.43-.37-.43-.46-.41-4.26-.61-6.39-1.02-10.65.63-4.27,5.79-2.45,9.29-1.35.09.19.17.38.26.57.61,1.34,1.17,2.8,1.57,3.88.13.28.25.57.34.83,0,.04.02.07.03.1.66,2.5.54,4.68-.69,6.07-.01.03-.03.04-.04.06Z"/>
        <path class="cls-1" d="M462.1,218.54c-2.14,4.76-23.77,10.7-30.51,11.47-9.64-8.38-21.18-16.21-28.65-25.49,1.59.24,2.39.36,3.98.59-.05,0-.07,0-.12,0,7.16,3.54,10.77,5.34,18.03,9.01,29.64,2.56-.27-17.56-15.02-17.33-3.69-5.54-4.83-12.5-6.08-18.42,3.47-4.75,11.17-14.39,11.17-14.39.73-.49,1.43-1.08,2.12-1.54,10.16.03,15.24.04,25.4.07,2.38-1.09,6.75-2.44,8.22-3.87.1,6.81-4.35,22.5-4.35,22.5-.12.14-.26.53-.46,1.23-.37,1.61-1.1,3.52-1.62,4.99-8.24-20.89-28.13-13.81-13.17,1.19,15.74,3.06,32.79,10.91,31.05,29.99Z"/>
        <path class="cls-1" d="M69.24,190.09c-2.09,1.48-3.14,2.22-5.24,3.71.4,8.6.62,12.88,1.1,21.41-1.53,4.78-2.29,7.17-3.84,11.97-13.91-10.18-5.47-6.67-27.66-2.57-.76.25-24.95-8.7-25.59-8.75.29-11.33-1.13-20.47.82-31.62,7.6-7.15,15.36-16.49,24.14-22.32,6.85-.95,15.52-3.52,22.16-3.06,5.5,4.62,14.08,10.58,14.05,17.66-7.71.28-13.67-6.11-21.8-3.21-11.16,4.6-13.85,16.82-16.78,24.81-.97,5.07.59,13.59,6.27,15.67,8.55-4.75,8.62-13.07,14.03-18.89-.7.25-10.08-.81-10.98-.87,6.16-3.55,9.21-5.31,15.28-8.76,5.01,1.18,10.45,2.42,15.65,3.4-.38.46-.94.93-1.62,1.43Z"/>
        <path class="cls-1" d="M134.5,192.04c-2.91-18.72,8.11-17.15-21.28-15.47-.39.25-.58.37-.97.61-3.29,6.48-4.96,9.74-8.33,16.28.09,7.97-5.83,15.74-6.94,23.73,1.69.26,2.53.39,4.23.64,2.23-2.82,3.34-4.22,5.54-7.01,5.87-.44,17.91-.79,17.91-.79,0,0,3.53,11.09,3.95,15.65.75-.03,1.13-.04,1.88-.06,2.89-2.05,7.67-4.87,9.81-7.32.27-5.87-5.69-20.41-5.8-26.26ZM115.22,200.25c.32-5.49,4.37-12.5,6.87-3.11,1.37,3.16-4.17,3.01-6.87,3.11Z"/>
        <path class="cls-1" d="M260.17,194.91c-5.56-20.93,6.36-17.74-22.96-16.27-.36.29-.53.44-.89.73-2.65,6.54-4,9.81-6.75,16.35,1.14,8.73-3.81,17.03-3.84,25.69,1.75.35,2.62.53,4.37.88,1.88-2.99,2.81-4.48,4.66-7.46,10.84-.53,18.36-3.74,20.67,7.4.74,0,1.12,0,1.86.01,2.64-2.16,7.03-5.09,8.83-7.77-.54-6.58-5-13.04-5.95-19.57ZM241.88,203.47c-.45-6.02,2.68-13.68,6.49-3.22,1.84,3.53-3.78,3.21-6.49,3.22Z"/>
        <path class="cls-1" d="M394.34,208.69c-.37-.34-.56-.51-.93-.85-3.58-.91-8.18-1.17-11.48-2.9,2.07-3.65,7.01-3.95,10.64-5.75,11.81-5.84-2.79-17.31-10.55-23.09-9.71-.03-30.83,1.85-30.83,1.85-.12.54,2.95,20.81,4.06,25.28,1.77,7.13,2.39,14.6,5.53,22.06,5.14-2.85,9.89-5.72,11.18-11.36,1.28-.05,1.91-.07,3.19-.11,3.55,3.53,11.92,11.81,11.92,11.81,6.12.53,18.14-.36,18.14-.36-.06-.74-10.75-9.82-10.86-16.57ZM379.78,195.71c-4.59.78-10.48,1.38-15.39,1.35-.4-3.61-1.05-8.53,1.18-11.45,8.58-.55,14.35,1.28,14.21,10.09Z"/>
      </g>
      <g>
        <path class="cls-1" d="M380.53,116.75c.9,15.37,1.19,32.89-3.04,47.85.33,1.59-11.88.53-12.76.78-2.73-8.59-7.96-15.63-13.92-22.86-4.98-.22.5,17.63,1.09,20.96-.45.37-.68.55-1.13.92-8.42-3.82-12.82-2.63-13.65-11.11-4.15-13.79-4.17-27.78-4.93-41.59.39-.38.59-.56.98-.94,6.35-.61,10.72-1.43,16.79-1.59,4.33,5.61,6.15,14.61,14.08,18.87.42-.41.63-.62,1.06-1.03-2.31-7.13,1.51-20.31.34-27.56,9.85,1.05,15.95,9.4,15.09,17.29Z"/>
        <g>
          <path class="cls-1" d="M323.73,117.95c-2.23,8.3-5.08,9.18-13.83,11.17-2.98.02-12.91.13-17.37.18-.21-3.76-1.75-7.72-1.36-11.71,10.32-.71,22.27.9,32.56.36Z"/>
          <path class="cls-1" d="M330.23,154.21c-.3.64-.76,1.31-1.4,2.01-1.52,1.79-3.85,3.69-5.6,5.13-1.81-.12-16.2-.15-17.96-.01-3.03.23-8.25.45-11.28.76-.59-7.83,1-14.95.08-22.79-.39-.58-.72-1.44-.92-2.31,3.7-.25,12.97-.77,19.49-.34.03.01.05.01.06.01.48.04.94.08,1.39.11.11.01.22.03.32.04.32.03.61.05.86.06.6.03,1.24.07,1.88.12.03.01.06.01.1.01,2.01.16,4.14.46,6.01,1.28-1.94,4.53-5.71,6.59-11.12,7.47-1.18.35-1,2.74-.82,4.01-.01,6.72,13.53,3.9,18.92,4.42Z"/>
        </g>
        <path class="cls-1" d="M286.37,131.47c-4.19-4.07-11.07-7.94-13.73-12.93-11.08.07-16.62.08-27.7.06-.34.27-.5.41-.84.68.62,6.49.48,23.87,2.82,27.85.85,1.46-1.29,16.27,1.96,15.72,16.14-2.73,21.67-2.37,34.32-11.52,4.26-3.08,3.21-14.91,3.18-19.87ZM261.82,151.31c-.88,0-1.32,0-2.2,0-.15-7.14.11-16.17.75-23.23,3.16-.02,4.74-.03,7.91-.05,1.83,5.54,5.7,14.75,4.74,17.12-.78,1.93-6.78,3.67-11.2,6.15Z"/>
        <path class="cls-1" d="M233.21,149.53c-.31-.31-.47-.47-.78-.78-3.31-.73-7.71-.82-10.63-2.41,2.59-3.6,7.4-4.03,11.19-5.87,12.41-6.01.04-16.47-6.48-21.95-10.05.09-31.53.26-32.5,1.83-2.14,3.5,2.75,46.13,3.94,46.69,1.05.5,10.55-6.06,12.71-11.62,1.25-.09,1.87-.13,3.12-.22,2.86,3.31,6.22,7.93,9.63,10.89,0,.03,0,.04,0,.07,5.86.24,17.68-1.24,17.68-1.24-.06-.6-8.87-8.92-7.89-15.39ZM220.87,137.79c-4.56.87-10.35,1.59-15.08,1.67.21-3.53.39-8.33,3.02-11.2,8.16-.75,13.74,1.22,12.06,9.53Z"/>
        <path class="cls-1" d="M185.34,141.06c-2.32-12.33,5.55-17.87-21.79-16.95-.38.28-.57.42-.95.7-2.99,6.73-4.51,10.11-7.59,16.88.41,8.43-5.17,16.44-5.93,24.84,1.7.34,2.55.51,4.25.85,2.1-2.89,3.15-4.33,5.22-7.21,10.76-.52,18.49-3.63,19.83,7,.74,0,1.11,0,1.85,0,2.77-2.09,7.37-4.92,9.38-7.49-.01-6.24-3.88-12.38-4.27-18.6ZM166.54,149.23c.06-5.8,3.79-13.12,6.69-3.09,1.52,3.39-4.01,3.07-6.69,3.09Z"/>
        <path class="cls-1" d="M145.31,134.12c-1.88,1.34-2.82,2.01-4.71,3.36.91,8.31,1.39,12.45,2.39,20.71-1.14,4.55-1.72,6.83-2.88,11.39-13.84-10.51-5.59-6.64-26.39-3.92-.71.19-24.16-9.78-24.77-9.87-.37-10.79-2.22-19.56-.99-30.08,6.78-6.39,13.56-14.9,21.5-20.09,6.37-.61,14.38-2.72,20.65-2.07,5.45,4.62,13.9,10.66,14.31,17.48-7.24,0-13.25-6.36-20.72-3.91-10.27,3.96-12.1,15.5-14.38,22.99-.64,4.8,1.35,13.06,6.86,15.35,7.81-4.13,7.37-12.12,12.13-17.47-.63.21-9.56-1.24-10.42-1.35,5.6-3.11,8.38-4.66,13.89-7.73,4.81,1.35,10.02,2.75,14.99,3.88-.33.44-.83.87-1.44,1.33Z"/>
      </g>
    </g>
  </g>
</svg>